<svg xmlns="http://www.w3.org/2000/svg" xmlns:xlink="http://www.w3.org/1999/xlink" width="50" zoomAndPan="magnify" viewBox="0 0 37.5 37.499999" height="50" preserveAspectRatio="xMidYMid meet" version="1.0"><defs><g/></defs><g fill="#8c52ff" fill-opacity="1"><g transform="translate(4.679316, 36.86252)"><g><path d="M 22.660156 -17.625 C 22.660156 -16.515625 22.710938 -15.410156 22.710938 -14.25 C 22.710938 -13.144531 22.761719 -12.035156 22.761719 -10.925781 L 22.761719 -7.554688 C 22.761719 -6.445312 22.710938 -5.289062 22.710938 -4.179688 C 22.710938 -3.070312 22.660156 -1.964844 22.660156 -0.804688 C 22.660156 -0.703125 22.761719 -0.554688 22.761719 -0.402344 C 22.761719 -0.25 22.558594 -0.0507812 22.410156 0 L 22.207031 0 C 21.855469 0.0507812 21.453125 0.0507812 21.101562 0.0507812 C 19.589844 0.0507812 18.128906 -0.0507812 16.617188 -0.0507812 C 16.46875 -0.0507812 16.265625 0.0507812 16.113281 0 C 15.964844 -0.0507812 15.863281 -0.25 15.863281 -0.453125 C 15.8125 -0.605469 15.710938 -0.804688 15.710938 -0.957031 C 15.710938 -1.964844 15.761719 -2.921875 15.761719 -3.929688 C 15.761719 -4.933594 15.863281 -5.890625 15.863281 -6.898438 C 15.863281 -7 15.8125 -7.101562 15.8125 -7.152344 C 15.761719 -7.300781 15.609375 -7.351562 15.511719 -7.402344 L 15.207031 -7.402344 C 13.445312 -7.402344 11.734375 -7.503906 10.019531 -7.503906 C 9.921875 -7.503906 9.820312 -7.503906 9.71875 -7.453125 C 9.566406 -7.453125 9.46875 -7.351562 9.46875 -7.199219 C 9.417969 -7.101562 9.417969 -6.949219 9.417969 -6.847656 C 9.417969 -6.34375 9.367188 -5.839844 9.367188 -5.386719 C 9.367188 -3.828125 9.417969 -2.265625 9.417969 -0.703125 C 9.417969 -0.605469 9.46875 -0.503906 9.46875 -0.402344 C 9.417969 -0.152344 9.214844 0 8.964844 0.0507812 C 8.761719 0.0507812 8.5625 0 8.359375 0 C 6.699219 0 5.035156 -0.0507812 3.375 -0.0507812 C 3.222656 -0.0507812 3.070312 -0.0507812 2.921875 -0.101562 C 2.769531 -0.152344 2.617188 -0.25 2.617188 -0.402344 C 2.566406 -0.554688 2.519531 -0.703125 2.519531 -0.855469 C 2.519531 -2.113281 2.519531 -3.375 2.519531 -4.632812 L 2.519531 -8.410156 C 2.519531 -9.667969 2.617188 -10.925781 2.617188 -12.1875 C 2.617188 -13.445312 2.566406 -14.703125 2.566406 -15.964844 C 2.566406 -17.171875 2.566406 -18.429688 2.566406 -19.691406 L 2.566406 -20.597656 C 2.617188 -20.847656 2.617188 -21.101562 2.667969 -21.351562 C 2.667969 -21.601562 2.71875 -21.90625 2.71875 -22.15625 C 2.769531 -22.761719 2.820312 -23.367188 2.972656 -23.917969 C 3.019531 -24.273438 3.171875 -24.625 3.273438 -24.976562 C 3.375 -25.378906 3.476562 -25.734375 3.625 -26.136719 C 3.726562 -26.488281 3.878906 -26.839844 4.027344 -27.191406 C 4.128906 -27.394531 4.128906 -27.597656 4.230469 -27.796875 C 4.382812 -28.097656 4.53125 -28.351562 4.683594 -28.601562 C 4.785156 -28.804688 4.835938 -29.007812 4.933594 -29.15625 C 5.035156 -29.308594 5.1875 -29.410156 5.289062 -29.558594 C 5.4375 -29.761719 5.488281 -29.960938 5.640625 -30.113281 L 6.144531 -30.71875 C 6.445312 -31.070312 6.746094 -31.371094 7.101562 -31.675781 C 7.25 -31.824219 7.453125 -31.925781 7.605469 -32.027344 C 7.65625 -32.128906 7.703125 -32.277344 7.804688 -32.328125 C 8.007812 -32.480469 8.207031 -32.53125 8.410156 -32.683594 C 8.710938 -32.882812 8.964844 -33.1875 9.265625 -33.335938 L 9.71875 -33.589844 C 9.820312 -33.589844 9.921875 -33.589844 9.972656 -33.640625 C 10.121094 -33.6875 10.222656 -33.789062 10.375 -33.839844 C 10.625 -33.992188 10.925781 -34.140625 11.230469 -34.242188 C 11.429688 -34.34375 11.632812 -34.394531 11.835938 -34.445312 C 12.1875 -34.546875 12.539062 -34.644531 12.839844 -34.695312 C 13.292969 -34.847656 13.746094 -34.949219 14.152344 -35.050781 C 14.453125 -35.097656 14.753906 -35.050781 15.007812 -35.097656 C 15.207031 -35.097656 15.460938 -35.148438 15.660156 -35.148438 C 15.914062 -35.199219 16.214844 -35.199219 16.46875 -35.199219 C 16.820312 -35.25 17.121094 -35.300781 17.472656 -35.300781 L 20.144531 -35.300781 C 20.898438 -35.25 22.359375 -35 22.609375 -33.890625 C 22.863281 -32.882812 22.761719 -31.875 22.761719 -30.871094 C 22.761719 -29.914062 22.761719 -29.007812 22.761719 -28.097656 L 22.761719 -27.746094 C 22.761719 -26.640625 22.710938 -25.480469 22.710938 -24.375 C 22.710938 -23.265625 22.660156 -22.105469 22.660156 -21 Z M 15.863281 -21.300781 C 15.863281 -22.359375 15.8125 -23.417969 15.8125 -24.472656 C 15.8125 -25.53125 15.761719 -26.589844 15.761719 -27.644531 L 15.761719 -27.796875 C 15.761719 -27.898438 15.761719 -28 15.710938 -28.097656 C 15.609375 -28.199219 15.511719 -28.25 15.410156 -28.25 C 15.257812 -28.25 15.15625 -28.148438 15.058594 -28.148438 C 14.855469 -28.097656 14.703125 -28.097656 14.554688 -28.097656 C 14.25 -28 14 -27.949219 13.746094 -27.898438 C 13.546875 -27.847656 13.34375 -27.746094 13.195312 -27.695312 C 13.042969 -27.597656 12.839844 -27.597656 12.691406 -27.546875 C 12.289062 -27.34375 12.035156 -27.042969 11.683594 -26.738281 C 11.429688 -26.539062 11.179688 -26.335938 10.976562 -26.085938 C 10.777344 -25.78125 10.625 -25.378906 10.472656 -25.027344 C 10.324219 -24.777344 10.171875 -24.574219 10.070312 -24.273438 C 9.921875 -23.871094 9.769531 -23.464844 9.667969 -23.0625 C 9.566406 -22.558594 9.519531 -22.105469 9.46875 -21.601562 C 9.46875 -21.351562 9.519531 -21.101562 9.46875 -20.847656 L 9.46875 -20.042969 C 9.46875 -19.539062 9.367188 -19.035156 9.367188 -18.53125 L 9.367188 -14.957031 C 9.367188 -14.804688 9.417969 -14.703125 9.46875 -14.605469 C 9.46875 -14.453125 9.617188 -14.351562 9.71875 -14.351562 C 9.820312 -14.300781 9.921875 -14.300781 10.019531 -14.300781 C 11.734375 -14.300781 13.496094 -14.300781 15.207031 -14.351562 C 15.308594 -14.351562 15.410156 -14.402344 15.511719 -14.402344 C 15.609375 -14.453125 15.660156 -14.503906 15.710938 -14.652344 L 15.761719 -14.855469 C 15.761719 -15.964844 15.863281 -17.019531 15.863281 -18.078125 Z M 15.863281 -21.300781 "/></g></g></g><g fill="#ffde59" fill-opacity="1"><g transform="translate(7.76781, 35.254656)"><g><path d="M 22.609375 -17.585938 C 22.609375 -16.480469 22.660156 -15.375 22.660156 -14.21875 C 22.660156 -13.113281 22.710938 -12.007812 22.710938 -10.902344 L 22.710938 -7.535156 C 22.710938 -6.429688 22.660156 -5.277344 22.660156 -4.171875 C 22.660156 -3.066406 22.609375 -1.960938 22.609375 -0.804688 C 22.609375 -0.703125 22.710938 -0.550781 22.710938 -0.402344 C 22.710938 -0.25 22.507812 -0.0507812 22.359375 0 L 22.15625 0 C 21.804688 0.0507812 21.402344 0.0507812 21.050781 0.0507812 C 19.546875 0.0507812 18.089844 -0.0507812 16.582031 -0.0507812 C 16.429688 -0.0507812 16.230469 0.0507812 16.078125 0 C 15.925781 -0.0507812 15.828125 -0.25 15.828125 -0.453125 C 15.777344 -0.601562 15.675781 -0.804688 15.675781 -0.953125 C 15.675781 -1.960938 15.726562 -2.914062 15.726562 -3.917969 C 15.726562 -4.925781 15.828125 -5.878906 15.828125 -6.882812 C 15.828125 -6.984375 15.777344 -7.085938 15.777344 -7.132812 C 15.726562 -7.285156 15.574219 -7.335938 15.476562 -7.386719 L 15.171875 -7.386719 C 13.414062 -7.386719 11.707031 -7.488281 10 -7.488281 C 9.898438 -7.488281 9.796875 -7.488281 9.695312 -7.4375 C 9.546875 -7.4375 9.445312 -7.335938 9.445312 -7.183594 C 9.394531 -7.085938 9.394531 -6.933594 9.394531 -6.832031 C 9.394531 -6.332031 9.34375 -5.828125 9.34375 -5.375 C 9.34375 -3.820312 9.394531 -2.261719 9.394531 -0.703125 C 9.394531 -0.601562 9.445312 -0.503906 9.445312 -0.402344 C 9.394531 -0.152344 9.195312 0 8.945312 0.0507812 C 8.742188 0.0507812 8.542969 0 8.339844 0 C 6.683594 0 5.023438 -0.0507812 3.367188 -0.0507812 C 3.214844 -0.0507812 3.066406 -0.0507812 2.914062 -0.101562 C 2.761719 -0.152344 2.613281 -0.25 2.613281 -0.402344 C 2.5625 -0.550781 2.511719 -0.703125 2.511719 -0.855469 C 2.511719 -2.109375 2.511719 -3.367188 2.511719 -4.621094 L 2.511719 -8.390625 C 2.511719 -9.648438 2.613281 -10.902344 2.613281 -12.160156 C 2.613281 -13.414062 2.5625 -14.671875 2.5625 -15.925781 C 2.5625 -17.132812 2.5625 -18.390625 2.5625 -19.644531 L 2.5625 -20.550781 C 2.613281 -20.800781 2.613281 -21.050781 2.664062 -21.304688 C 2.664062 -21.554688 2.714844 -21.855469 2.714844 -22.109375 C 2.761719 -22.710938 2.8125 -23.3125 2.964844 -23.867188 C 3.015625 -24.21875 3.164062 -24.570312 3.265625 -24.921875 C 3.367188 -25.324219 3.46875 -25.675781 3.617188 -26.078125 C 3.71875 -26.429688 3.867188 -26.78125 4.019531 -27.132812 C 4.121094 -27.332031 4.121094 -27.535156 4.21875 -27.734375 C 4.371094 -28.035156 4.523438 -28.289062 4.671875 -28.539062 C 4.773438 -28.738281 4.824219 -28.941406 4.925781 -29.089844 C 5.023438 -29.242188 5.175781 -29.34375 5.277344 -29.492188 C 5.425781 -29.695312 5.476562 -29.894531 5.628906 -30.046875 L 6.128906 -30.648438 C 6.429688 -31 6.734375 -31.300781 7.085938 -31.605469 C 7.234375 -31.753906 7.4375 -31.855469 7.585938 -31.957031 C 7.636719 -32.054688 7.6875 -32.207031 7.789062 -32.257812 C 7.988281 -32.40625 8.191406 -32.457031 8.390625 -32.609375 C 8.691406 -32.808594 8.945312 -33.109375 9.246094 -33.261719 L 9.695312 -33.511719 C 9.796875 -33.511719 9.898438 -33.511719 9.949219 -33.5625 C 10.097656 -33.613281 10.199219 -33.714844 10.351562 -33.765625 C 10.601562 -33.914062 10.902344 -34.066406 11.203125 -34.167969 C 11.40625 -34.265625 11.605469 -34.316406 11.808594 -34.367188 C 12.160156 -34.46875 12.511719 -34.566406 12.8125 -34.617188 C 13.265625 -34.769531 13.714844 -34.871094 14.117188 -34.96875 C 14.421875 -35.019531 14.722656 -34.96875 14.972656 -35.019531 C 15.171875 -35.019531 15.425781 -35.070312 15.625 -35.070312 C 15.878906 -35.121094 16.179688 -35.121094 16.429688 -35.121094 C 16.78125 -35.171875 17.082031 -35.222656 17.433594 -35.222656 L 20.097656 -35.222656 C 20.851562 -35.171875 22.308594 -34.917969 22.558594 -33.8125 C 22.8125 -32.808594 22.710938 -31.804688 22.710938 -30.800781 C 22.710938 -29.84375 22.710938 -28.941406 22.710938 -28.035156 L 22.710938 -27.683594 C 22.710938 -26.578125 22.660156 -25.421875 22.660156 -24.316406 C 22.660156 -23.210938 22.609375 -22.058594 22.609375 -20.953125 Z M 15.828125 -21.253906 C 15.828125 -22.308594 15.777344 -23.363281 15.777344 -24.417969 C 15.777344 -25.472656 15.726562 -26.527344 15.726562 -27.585938 L 15.726562 -27.734375 C 15.726562 -27.835938 15.726562 -27.9375 15.675781 -28.035156 C 15.574219 -28.136719 15.476562 -28.1875 15.375 -28.1875 C 15.222656 -28.1875 15.125 -28.085938 15.023438 -28.085938 C 14.820312 -28.035156 14.671875 -28.035156 14.519531 -28.035156 C 14.21875 -27.9375 13.96875 -27.886719 13.714844 -27.835938 C 13.515625 -27.785156 13.316406 -27.683594 13.164062 -27.632812 C 13.011719 -27.535156 12.8125 -27.535156 12.660156 -27.484375 C 12.257812 -27.28125 12.007812 -26.980469 11.65625 -26.679688 C 11.40625 -26.480469 11.152344 -26.277344 10.953125 -26.027344 C 10.753906 -25.726562 10.601562 -25.324219 10.449219 -24.972656 C 10.300781 -24.71875 10.148438 -24.519531 10.050781 -24.21875 C 9.898438 -23.816406 9.746094 -23.414062 9.648438 -23.011719 C 9.546875 -22.507812 9.496094 -22.058594 9.445312 -21.554688 C 9.445312 -21.304688 9.496094 -21.050781 9.445312 -20.800781 L 9.445312 -19.996094 C 9.445312 -19.496094 9.34375 -18.992188 9.34375 -18.488281 L 9.34375 -14.921875 C 9.34375 -14.773438 9.394531 -14.671875 9.445312 -14.570312 C 9.445312 -14.421875 9.597656 -14.320312 9.695312 -14.320312 C 9.796875 -14.269531 9.898438 -14.269531 10 -14.269531 C 11.707031 -14.269531 13.464844 -14.269531 15.171875 -14.320312 C 15.273438 -14.320312 15.375 -14.371094 15.476562 -14.371094 C 15.574219 -14.421875 15.625 -14.46875 15.675781 -14.621094 L 15.726562 -14.820312 C 15.726562 -15.925781 15.828125 -16.984375 15.828125 -18.039062 Z M 15.828125 -21.253906 "/></g></g></g></svg>