<svg xmlns="http://www.w3.org/2000/svg" xmlns:xlink="http://www.w3.org/1999/xlink" width="50" zoomAndPan="magnify" viewBox="0 0 37.5 37.499999" height="50" preserveAspectRatio="xMidYMid meet" version="1.0"><defs><g/></defs><g fill="#8c52ff" fill-opacity="1"><g transform="translate(4.904516, 36.86252)"><g><path d="M 3.375 -17.625 C 3.375 -18.734375 3.273438 -19.890625 3.273438 -21 L 3.273438 -24.324219 C 3.273438 -25.480469 3.375 -26.589844 3.375 -27.695312 C 3.375 -28.804688 3.375 -29.914062 3.375 -31.019531 L 3.375 -34.394531 C 3.375 -34.546875 3.324219 -34.644531 3.324219 -34.796875 C 3.375 -35 3.523438 -35.097656 3.726562 -35.148438 L 4.078125 -35.199219 C 4.632812 -35.199219 5.1875 -35.148438 5.691406 -35.148438 C 6.796875 -35.148438 7.855469 -35.25 8.964844 -35.25 C 9.0625 -35.25 9.164062 -35.199219 9.265625 -35.148438 C 9.566406 -35.097656 9.667969 -34.949219 9.667969 -34.695312 C 9.71875 -34.496094 9.769531 -34.242188 9.769531 -34.042969 L 9.769531 -29.960938 C 9.769531 -28.601562 9.71875 -27.242188 9.71875 -25.882812 C 9.71875 -24.574219 9.769531 -23.214844 9.769531 -21.855469 C 9.769531 -21.652344 9.71875 -21.503906 9.769531 -21.300781 C 9.871094 -21.050781 10.070312 -21 10.324219 -20.949219 C 10.472656 -20.898438 10.625 -20.847656 10.777344 -20.847656 C 11.480469 -20.847656 12.1875 -20.746094 12.941406 -20.746094 C 13.34375 -20.796875 13.796875 -20.847656 14.199219 -21 C 14.453125 -21.101562 14.703125 -21.25 14.90625 -21.402344 C 15.15625 -21.554688 15.410156 -21.804688 15.609375 -22.007812 C 15.8125 -22.257812 15.914062 -22.511719 16.0625 -22.761719 C 16.164062 -23.011719 16.214844 -23.316406 16.316406 -23.617188 C 16.316406 -23.769531 16.417969 -23.96875 16.417969 -24.171875 C 16.46875 -24.375 16.367188 -24.574219 16.367188 -24.777344 L 16.367188 -28 C 16.367188 -29.054688 16.46875 -30.113281 16.46875 -31.222656 C 16.46875 -32.277344 16.417969 -33.386719 16.417969 -34.445312 C 16.417969 -34.546875 16.46875 -34.695312 16.515625 -34.796875 C 16.515625 -35 16.617188 -35.050781 16.769531 -35.097656 C 16.921875 -35.148438 17.019531 -35.148438 17.121094 -35.148438 C 18.785156 -35.199219 20.445312 -35.148438 22.054688 -35.148438 C 22.207031 -35.148438 22.308594 -35.199219 22.460938 -35.148438 C 22.558594 -35.097656 22.660156 -35 22.710938 -34.898438 C 22.710938 -34.796875 22.761719 -34.746094 22.761719 -34.644531 C 22.8125 -33.335938 22.710938 -31.976562 22.710938 -30.667969 C 22.710938 -29.710938 22.8125 -28.753906 22.8125 -27.796875 C 22.8125 -26.839844 22.761719 -25.882812 22.761719 -24.976562 C 22.761719 -24.828125 22.8125 -24.675781 22.8125 -24.523438 C 22.761719 -24.324219 22.761719 -24.171875 22.761719 -24.019531 C 22.761719 -23.769531 22.710938 -23.515625 22.710938 -23.316406 C 22.660156 -22.964844 22.660156 -22.660156 22.609375 -22.359375 C 22.558594 -22.105469 22.410156 -21.90625 22.359375 -21.652344 C 22.257812 -21.351562 22.207031 -21 22.105469 -20.695312 L 21.957031 -20.292969 C 21.90625 -20.09375 21.804688 -19.941406 21.703125 -19.789062 L 21.25 -19.085938 C 21.050781 -18.832031 20.949219 -18.53125 20.796875 -18.28125 L 20.34375 -17.875 C 20.242188 -17.726562 20.292969 -17.523438 20.34375 -17.324219 C 20.34375 -17.171875 20.394531 -17.019531 20.445312 -16.921875 L 20.898438 -16.46875 C 21.050781 -16.265625 21.148438 -16.0625 21.300781 -15.863281 L 21.90625 -14.957031 C 22.007812 -14.753906 22.15625 -14.554688 22.257812 -14.300781 C 22.308594 -14.25 22.308594 -14.101562 22.308594 -14 C 22.511719 -13.648438 22.609375 -13.292969 22.710938 -12.941406 C 22.8125 -12.640625 22.863281 -12.335938 22.914062 -12.035156 C 22.914062 -11.835938 22.964844 -11.582031 22.964844 -11.378906 C 23.011719 -10.726562 23.011719 -10.070312 23.011719 -9.417969 C 23.011719 -8.8125 23.0625 -8.15625 23.0625 -7.503906 C 23.0625 -6.847656 23.0625 -6.195312 23.0625 -5.539062 L 23.0625 -0.804688 C 23.0625 -0.703125 22.964844 -0.605469 22.964844 -0.503906 C 22.914062 -0.300781 22.863281 -0.152344 22.710938 -0.101562 C 22.609375 -0.0507812 22.460938 -0.152344 22.410156 -0.152344 C 21.601562 -0.101562 20.847656 -0.101562 20.09375 -0.101562 C 19.285156 -0.101562 18.53125 0 17.777344 0 C 17.574219 0 17.375 -0.152344 17.222656 -0.152344 C 17.121094 -0.152344 17.070312 -0.152344 16.96875 -0.203125 C 16.871094 -0.203125 16.769531 -0.25 16.71875 -0.351562 C 16.667969 -0.402344 16.769531 -0.554688 16.769531 -0.605469 C 16.71875 -1.359375 16.667969 -2.113281 16.667969 -2.871094 L 16.667969 -6.898438 C 16.667969 -8.257812 16.71875 -9.617188 16.71875 -10.925781 C 16.71875 -11.429688 16.566406 -11.933594 16.367188 -12.386719 C 16.265625 -12.691406 16.015625 -12.890625 15.863281 -13.09375 C 15.710938 -13.292969 15.609375 -13.496094 15.460938 -13.597656 C 15.359375 -13.648438 15.308594 -13.746094 15.207031 -13.796875 C 14.855469 -14.050781 14.503906 -14.25 14.101562 -14.351562 C 13.898438 -14.402344 13.695312 -14.453125 13.445312 -14.453125 L 13.242188 -14.453125 C 13.144531 -14.453125 13.042969 -14.402344 12.941406 -14.402344 C 12.941406 -14.402344 12.890625 -14.453125 12.839844 -14.453125 C 12.742188 -14.453125 12.691406 -14.402344 12.589844 -14.402344 C 12.085938 -14.402344 11.582031 -14.453125 11.078125 -14.453125 C 10.976562 -14.453125 10.925781 -14.453125 10.878906 -14.453125 L 10.828125 -14.402344 C 10.675781 -14.402344 10.523438 -14.453125 10.375 -14.402344 C 10.222656 -14.402344 10.070312 -14.300781 9.972656 -14.199219 C 9.871094 -14.101562 9.820312 -14 9.769531 -13.847656 L 9.769531 -13.34375 C 9.769531 -11.984375 9.71875 -10.625 9.71875 -9.316406 C 9.71875 -7.957031 9.769531 -6.597656 9.769531 -5.238281 C 9.769531 -3.878906 9.71875 -2.519531 9.71875 -1.160156 C 9.71875 -0.957031 9.769531 -0.753906 9.769531 -0.554688 C 9.71875 -0.402344 9.617188 -0.300781 9.46875 -0.203125 L 9.417969 -0.152344 C 9.316406 -0.152344 9.214844 -0.101562 9.113281 -0.101562 C 7.554688 -0.0507812 6.042969 -0.152344 4.53125 -0.152344 C 4.332031 -0.152344 4.128906 -0.101562 3.929688 -0.152344 L 3.726562 -0.152344 C 3.523438 -0.203125 3.425781 -0.300781 3.375 -0.503906 C 3.375 -0.605469 3.324219 -0.703125 3.324219 -0.804688 L 3.324219 -4.179688 C 3.324219 -5.289062 3.375 -6.445312 3.375 -7.554688 C 3.375 -8.660156 3.324219 -9.769531 3.324219 -10.925781 L 3.324219 -14.300781 C 3.324219 -15.410156 3.375 -16.515625 3.375 -17.625 Z M 3.375 -17.625 "/></g></g></g><g fill="#ffde59" fill-opacity="1"><g transform="translate(7.993404, 34.258932)"><g><path d="M 3.367188 -17.585938 C 3.367188 -18.691406 3.265625 -19.847656 3.265625 -20.953125 L 3.265625 -24.269531 C 3.265625 -25.421875 3.367188 -26.527344 3.367188 -27.632812 C 3.367188 -28.738281 3.367188 -29.84375 3.367188 -30.949219 L 3.367188 -34.316406 C 3.367188 -34.46875 3.316406 -34.566406 3.316406 -34.71875 C 3.367188 -34.917969 3.515625 -35.019531 3.71875 -35.070312 L 4.070312 -35.121094 C 4.621094 -35.121094 5.175781 -35.070312 5.675781 -35.070312 C 6.78125 -35.070312 7.839844 -35.171875 8.945312 -35.171875 C 9.042969 -35.171875 9.144531 -35.121094 9.246094 -35.070312 C 9.546875 -35.019531 9.648438 -34.871094 9.648438 -34.617188 C 9.695312 -34.417969 9.746094 -34.167969 9.746094 -33.964844 L 9.746094 -29.894531 C 9.746094 -28.539062 9.695312 -27.183594 9.695312 -25.824219 C 9.695312 -24.519531 9.746094 -23.164062 9.746094 -21.804688 C 9.746094 -21.605469 9.695312 -21.453125 9.746094 -21.253906 C 9.847656 -21.003906 10.050781 -20.953125 10.300781 -20.902344 C 10.449219 -20.851562 10.601562 -20.800781 10.753906 -20.800781 C 11.457031 -20.800781 12.160156 -20.699219 12.914062 -20.699219 C 13.316406 -20.75 13.765625 -20.800781 14.167969 -20.953125 C 14.421875 -21.050781 14.671875 -21.203125 14.871094 -21.355469 C 15.125 -21.503906 15.375 -21.753906 15.574219 -21.957031 C 15.777344 -22.207031 15.878906 -22.460938 16.027344 -22.710938 C 16.128906 -22.960938 16.179688 -23.261719 16.277344 -23.566406 C 16.277344 -23.714844 16.378906 -23.917969 16.378906 -24.117188 C 16.429688 -24.316406 16.328125 -24.519531 16.328125 -24.71875 L 16.328125 -27.9375 C 16.328125 -28.992188 16.429688 -30.046875 16.429688 -31.152344 C 16.429688 -32.207031 16.378906 -33.3125 16.378906 -34.367188 C 16.378906 -34.46875 16.429688 -34.617188 16.480469 -34.71875 C 16.480469 -34.917969 16.582031 -34.96875 16.730469 -35.019531 C 16.882812 -35.070312 16.984375 -35.070312 17.082031 -35.070312 C 18.742188 -35.121094 20.398438 -35.070312 22.007812 -35.070312 C 22.15625 -35.070312 22.257812 -35.121094 22.410156 -35.070312 C 22.507812 -35.019531 22.609375 -34.917969 22.660156 -34.820312 C 22.660156 -34.71875 22.710938 -34.667969 22.710938 -34.566406 C 22.761719 -33.261719 22.660156 -31.90625 22.660156 -30.597656 C 22.660156 -29.644531 22.761719 -28.691406 22.761719 -27.734375 C 22.761719 -26.78125 22.710938 -25.824219 22.710938 -24.921875 C 22.710938 -24.769531 22.761719 -24.621094 22.761719 -24.46875 C 22.710938 -24.269531 22.710938 -24.117188 22.710938 -23.964844 C 22.710938 -23.714844 22.660156 -23.464844 22.660156 -23.261719 C 22.609375 -22.910156 22.609375 -22.609375 22.558594 -22.308594 C 22.507812 -22.058594 22.359375 -21.855469 22.308594 -21.605469 C 22.207031 -21.304688 22.15625 -20.953125 22.058594 -20.648438 L 21.90625 -20.25 C 21.855469 -20.046875 21.753906 -19.898438 21.65625 -19.746094 L 21.203125 -19.042969 C 21.003906 -18.792969 20.902344 -18.488281 20.75 -18.238281 L 20.296875 -17.835938 C 20.199219 -17.6875 20.25 -17.484375 20.296875 -17.285156 C 20.296875 -17.132812 20.347656 -16.984375 20.398438 -16.882812 L 20.851562 -16.429688 C 21.003906 -16.230469 21.101562 -16.027344 21.253906 -15.828125 L 21.855469 -14.921875 C 21.957031 -14.722656 22.109375 -14.519531 22.207031 -14.269531 C 22.257812 -14.21875 22.257812 -14.070312 22.257812 -13.96875 C 22.460938 -13.617188 22.558594 -13.265625 22.660156 -12.914062 C 22.761719 -12.609375 22.8125 -12.308594 22.859375 -12.007812 C 22.859375 -11.808594 22.910156 -11.554688 22.910156 -11.355469 C 22.960938 -10.703125 22.960938 -10.050781 22.960938 -9.394531 C 22.960938 -8.792969 23.011719 -8.140625 23.011719 -7.488281 C 23.011719 -6.832031 23.011719 -6.179688 23.011719 -5.527344 L 23.011719 -0.804688 C 23.011719 -0.703125 22.910156 -0.601562 22.910156 -0.503906 C 22.859375 -0.300781 22.8125 -0.152344 22.660156 -0.101562 C 22.558594 -0.0507812 22.410156 -0.152344 22.359375 -0.152344 C 21.554688 -0.101562 20.800781 -0.101562 20.046875 -0.101562 C 19.242188 -0.101562 18.488281 0 17.734375 0 C 17.535156 0 17.335938 -0.152344 17.183594 -0.152344 C 17.082031 -0.152344 17.03125 -0.152344 16.933594 -0.199219 C 16.832031 -0.199219 16.730469 -0.25 16.679688 -0.351562 C 16.628906 -0.402344 16.730469 -0.550781 16.730469 -0.601562 C 16.679688 -1.355469 16.628906 -2.109375 16.628906 -2.863281 L 16.628906 -6.882812 C 16.628906 -8.238281 16.679688 -9.597656 16.679688 -10.902344 C 16.679688 -11.40625 16.53125 -11.90625 16.328125 -12.359375 C 16.230469 -12.660156 15.976562 -12.863281 15.828125 -13.0625 C 15.675781 -13.265625 15.574219 -13.464844 15.425781 -13.566406 C 15.324219 -13.617188 15.273438 -13.714844 15.171875 -13.765625 C 14.820312 -14.019531 14.46875 -14.21875 14.070312 -14.320312 C 13.867188 -14.371094 13.667969 -14.421875 13.414062 -14.421875 L 13.214844 -14.421875 C 13.113281 -14.421875 13.011719 -14.371094 12.914062 -14.371094 C 12.914062 -14.371094 12.863281 -14.421875 12.8125 -14.421875 C 12.710938 -14.421875 12.660156 -14.371094 12.5625 -14.371094 C 12.058594 -14.371094 11.554688 -14.421875 11.054688 -14.421875 C 10.953125 -14.421875 10.902344 -14.421875 10.851562 -14.421875 L 10.800781 -14.371094 C 10.652344 -14.371094 10.5 -14.421875 10.351562 -14.371094 C 10.199219 -14.371094 10.050781 -14.269531 9.949219 -14.167969 C 9.847656 -14.070312 9.796875 -13.96875 9.746094 -13.816406 L 9.746094 -13.316406 C 9.746094 -11.957031 9.695312 -10.601562 9.695312 -9.296875 C 9.695312 -7.9375 9.746094 -6.582031 9.746094 -5.226562 C 9.746094 -3.867188 9.695312 -2.511719 9.695312 -1.15625 C 9.695312 -0.953125 9.746094 -0.753906 9.746094 -0.550781 C 9.695312 -0.402344 9.597656 -0.300781 9.445312 -0.199219 L 9.394531 -0.152344 C 9.296875 -0.152344 9.195312 -0.101562 9.09375 -0.101562 C 7.535156 -0.0507812 6.03125 -0.152344 4.523438 -0.152344 C 4.320312 -0.152344 4.121094 -0.101562 3.917969 -0.152344 L 3.71875 -0.152344 C 3.515625 -0.199219 3.417969 -0.300781 3.367188 -0.503906 C 3.367188 -0.601562 3.316406 -0.703125 3.316406 -0.804688 L 3.316406 -4.171875 C 3.316406 -5.277344 3.367188 -6.429688 3.367188 -7.535156 C 3.367188 -8.640625 3.316406 -9.746094 3.316406 -10.902344 L 3.316406 -14.269531 C 3.316406 -15.375 3.367188 -16.480469 3.367188 -17.585938 Z M 3.367188 -17.585938 "/></g></g></g></svg>