<svg xmlns="http://www.w3.org/2000/svg" xmlns:xlink="http://www.w3.org/1999/xlink" width="250" zoomAndPan="magnify" viewBox="0 0 187.5 37.5" height="50" preserveAspectRatio="xMidYMid meet" version="1.0"><defs><g/></defs><g fill="#000000" fill-opacity="1"><g transform="translate(2.842105, 32.597544)"><g><path d="M 16.855469 -13.109375 C 16.855469 -12.285156 16.890625 -11.460938 16.890625 -10.597656 C 16.890625 -9.773438 16.929688 -8.953125 16.929688 -8.128906 L 16.929688 -5.617188 C 16.929688 -4.792969 16.890625 -3.933594 16.890625 -3.109375 C 16.890625 -2.285156 16.855469 -1.460938 16.855469 -0.597656 C 16.855469 -0.523438 16.929688 -0.410156 16.929688 -0.300781 C 16.929688 -0.1875 16.777344 -0.0390625 16.667969 0 L 16.515625 0 C 16.253906 0.0390625 15.953125 0.0390625 15.691406 0.0390625 C 14.570312 0.0390625 13.484375 -0.0390625 12.359375 -0.0390625 C 12.246094 -0.0390625 12.097656 0.0390625 11.984375 0 C 11.871094 -0.0390625 11.796875 -0.1875 11.796875 -0.335938 C 11.761719 -0.449219 11.683594 -0.597656 11.683594 -0.710938 C 11.683594 -1.460938 11.722656 -2.171875 11.722656 -2.921875 C 11.722656 -3.671875 11.796875 -4.382812 11.796875 -5.132812 C 11.796875 -5.207031 11.761719 -5.28125 11.761719 -5.316406 C 11.722656 -5.429688 11.609375 -5.46875 11.535156 -5.503906 L 11.3125 -5.503906 C 10 -5.503906 8.726562 -5.582031 7.453125 -5.582031 C 7.378906 -5.582031 7.304688 -5.582031 7.226562 -5.542969 C 7.117188 -5.542969 7.042969 -5.46875 7.042969 -5.355469 C 7.003906 -5.28125 7.003906 -5.167969 7.003906 -5.09375 C 7.003906 -4.71875 6.964844 -4.34375 6.964844 -4.007812 C 6.964844 -2.847656 7.003906 -1.683594 7.003906 -0.523438 C 7.003906 -0.449219 7.042969 -0.375 7.042969 -0.300781 C 7.003906 -0.113281 6.855469 0 6.667969 0.0390625 C 6.515625 0.0390625 6.367188 0 6.21875 0 C 4.980469 0 3.746094 -0.0390625 2.507812 -0.0390625 C 2.398438 -0.0390625 2.285156 -0.0390625 2.171875 -0.0742188 C 2.058594 -0.113281 1.949219 -0.1875 1.949219 -0.300781 C 1.910156 -0.410156 1.871094 -0.523438 1.871094 -0.636719 C 1.871094 -1.574219 1.871094 -2.507812 1.871094 -3.445312 L 1.871094 -6.253906 C 1.871094 -7.191406 1.949219 -8.128906 1.949219 -9.0625 C 1.949219 -10 1.910156 -10.9375 1.910156 -11.871094 C 1.910156 -12.773438 1.910156 -13.707031 1.910156 -14.644531 L 1.910156 -15.316406 C 1.949219 -15.503906 1.949219 -15.691406 1.984375 -15.878906 C 1.984375 -16.066406 2.023438 -16.292969 2.023438 -16.480469 C 2.058594 -16.929688 2.097656 -17.378906 2.210938 -17.789062 C 2.246094 -18.050781 2.359375 -18.316406 2.433594 -18.578125 C 2.507812 -18.875 2.585938 -19.136719 2.695312 -19.4375 C 2.773438 -19.699219 2.882812 -19.960938 2.996094 -20.226562 C 3.070312 -20.375 3.070312 -20.523438 3.144531 -20.675781 C 3.257812 -20.898438 3.371094 -21.085938 3.484375 -21.273438 C 3.558594 -21.421875 3.59375 -21.574219 3.671875 -21.683594 C 3.746094 -21.796875 3.859375 -21.871094 3.933594 -21.984375 C 4.046875 -22.136719 4.082031 -22.285156 4.195312 -22.398438 L 4.570312 -22.847656 C 4.792969 -23.109375 5.019531 -23.332031 5.28125 -23.558594 C 5.394531 -23.671875 5.542969 -23.746094 5.65625 -23.820312 C 5.691406 -23.894531 5.730469 -24.007812 5.804688 -24.042969 C 5.953125 -24.15625 6.105469 -24.195312 6.253906 -24.308594 C 6.480469 -24.457031 6.667969 -24.679688 6.890625 -24.792969 L 7.226562 -24.980469 C 7.304688 -24.980469 7.378906 -24.980469 7.414062 -25.019531 C 7.527344 -25.054688 7.601562 -25.132812 7.714844 -25.167969 C 7.902344 -25.28125 8.128906 -25.394531 8.351562 -25.46875 C 8.5 -25.542969 8.652344 -25.582031 8.800781 -25.617188 C 9.0625 -25.691406 9.324219 -25.769531 9.550781 -25.804688 C 9.886719 -25.917969 10.226562 -25.992188 10.523438 -26.066406 C 10.75 -26.105469 10.972656 -26.066406 11.160156 -26.105469 C 11.3125 -26.105469 11.5 -26.140625 11.648438 -26.140625 C 11.835938 -26.179688 12.058594 -26.179688 12.246094 -26.179688 C 12.507812 -26.21875 12.734375 -26.253906 12.996094 -26.253906 L 14.980469 -26.253906 C 15.542969 -26.21875 16.628906 -26.03125 16.816406 -25.207031 C 17.003906 -24.457031 16.929688 -23.707031 16.929688 -22.957031 C 16.929688 -22.246094 16.929688 -21.574219 16.929688 -20.898438 L 16.929688 -20.636719 C 16.929688 -19.8125 16.890625 -18.953125 16.890625 -18.128906 C 16.890625 -17.304688 16.855469 -16.441406 16.855469 -15.617188 Z M 11.796875 -15.84375 C 11.796875 -16.628906 11.761719 -17.414062 11.761719 -18.203125 C 11.761719 -18.988281 11.722656 -19.773438 11.722656 -20.5625 L 11.722656 -20.675781 C 11.722656 -20.75 11.722656 -20.824219 11.683594 -20.898438 C 11.609375 -20.972656 11.535156 -21.011719 11.460938 -21.011719 C 11.347656 -21.011719 11.273438 -20.9375 11.199219 -20.9375 C 11.046875 -20.898438 10.9375 -20.898438 10.824219 -20.898438 C 10.597656 -20.824219 10.410156 -20.785156 10.226562 -20.75 C 10.074219 -20.710938 9.925781 -20.636719 9.8125 -20.597656 C 9.699219 -20.523438 9.550781 -20.523438 9.4375 -20.488281 C 9.136719 -20.335938 8.953125 -20.113281 8.6875 -19.886719 C 8.5 -19.738281 8.316406 -19.589844 8.164062 -19.402344 C 8.015625 -19.175781 7.902344 -18.875 7.789062 -18.613281 C 7.679688 -18.425781 7.566406 -18.277344 7.492188 -18.050781 C 7.378906 -17.753906 7.265625 -17.453125 7.191406 -17.152344 C 7.117188 -16.777344 7.078125 -16.441406 7.042969 -16.066406 C 7.042969 -15.878906 7.078125 -15.691406 7.042969 -15.503906 L 7.042969 -14.90625 C 7.042969 -14.53125 6.964844 -14.15625 6.964844 -13.78125 L 6.964844 -11.125 C 6.964844 -11.011719 7.003906 -10.9375 7.042969 -10.863281 C 7.042969 -10.75 7.152344 -10.675781 7.226562 -10.675781 C 7.304688 -10.636719 7.378906 -10.636719 7.453125 -10.636719 C 8.726562 -10.636719 10.039062 -10.636719 11.3125 -10.675781 C 11.386719 -10.675781 11.460938 -10.710938 11.535156 -10.710938 C 11.609375 -10.75 11.648438 -10.785156 11.683594 -10.898438 L 11.722656 -11.046875 C 11.722656 -11.871094 11.796875 -12.660156 11.796875 -13.445312 Z M 11.796875 -15.84375 "/></g></g></g><g fill="#000000" fill-opacity="1"><g transform="translate(22.205401, 32.597544)"><g><path d="M 14.945312 -26.40625 C 15.242188 -26.40625 15.582031 -26.480469 15.878906 -26.480469 C 16.066406 -26.480469 16.253906 -26.40625 16.441406 -26.328125 C 16.554688 -26.292969 16.742188 -26.292969 16.816406 -26.179688 C 16.855469 -26.140625 16.855469 -26.066406 16.890625 -26.03125 C 16.964844 -25.917969 17.003906 -25.804688 17.042969 -25.691406 C 17.152344 -25.242188 17.191406 -24.757812 17.191406 -24.230469 C 17.191406 -23.746094 17.152344 -23.222656 17.152344 -22.773438 L 17.152344 -22.585938 C 17.152344 -22.546875 17.191406 -22.507812 17.191406 -22.472656 C 17.191406 -22.398438 17.191406 -22.320312 17.191406 -22.246094 L 17.117188 -22.210938 C 17.117188 -21.761719 16.964844 -21.273438 16.554688 -21.085938 C 16.40625 -21.011719 16.253906 -21.046875 16.140625 -21.011719 C 16.03125 -21.011719 15.917969 -20.972656 15.804688 -20.972656 C 14.792969 -20.863281 13.820312 -20.824219 12.847656 -20.675781 C 11.871094 -20.523438 10.9375 -20.335938 10.039062 -19.699219 C 9.136719 -19.101562 8.316406 -18.351562 7.714844 -17.453125 C 7.679688 -17.339844 7.566406 -17.265625 7.492188 -17.152344 L 7.226562 -16.667969 C 7.078125 -16.367188 7.042969 -16.066406 6.929688 -15.769531 C 6.816406 -15.46875 6.816406 -15.167969 6.742188 -14.90625 C 6.667969 -14.644531 6.480469 -14.382812 6.441406 -14.121094 C 6.40625 -13.820312 6.40625 -13.558594 6.40625 -13.257812 C 6.40625 -12.734375 6.441406 -12.246094 6.515625 -11.722656 C 6.554688 -11.683594 6.667969 -11.683594 6.703125 -11.648438 C 6.742188 -11.386719 6.777344 -11.160156 6.855469 -10.9375 C 7.117188 -10.226562 7.304688 -9.511719 7.714844 -8.914062 C 8.089844 -8.316406 8.539062 -7.679688 9.101562 -7.191406 C 9.25 -7.078125 9.4375 -7.042969 9.550781 -6.964844 C 10.597656 -6.140625 11.835938 -5.65625 13.144531 -5.46875 C 13.332031 -5.429688 13.519531 -5.28125 13.707031 -5.28125 C 14.082031 -5.28125 14.679688 -5.355469 15.242188 -5.355469 C 15.953125 -5.355469 16.667969 -5.242188 16.929688 -4.757812 C 17.003906 -4.679688 17.117188 -4.644531 17.117188 -4.53125 C 17.117188 -4.496094 17.152344 -4.457031 17.152344 -4.382812 C 17.152344 -4.308594 17.078125 -4.195312 17.078125 -4.121094 C 17.078125 -4.046875 17.152344 -4.007812 17.152344 -3.933594 C 17.152344 -3.933594 17.191406 -3.894531 17.191406 -3.859375 C 17.152344 -3.78125 17.117188 -3.707031 17.152344 -3.632812 C 17.152344 -3.59375 17.226562 -3.59375 17.226562 -3.558594 C 17.226562 -2.882812 17.152344 -2.210938 17.152344 -1.535156 C 17.152344 -1.5 17.191406 -1.460938 17.191406 -1.460938 C 17.152344 -1.386719 17.117188 -1.3125 17.117188 -1.273438 C 17.152344 -1.234375 17.117188 -1.199219 17.078125 -1.160156 C 17.078125 -1.125 17.191406 -1.046875 17.191406 -0.972656 C 17.191406 -0.785156 17.078125 -0.636719 17.003906 -0.449219 C 16.777344 0.148438 16.03125 0.261719 15.355469 0.261719 C 14.980469 0.261719 14.605469 0.226562 14.308594 0.226562 C 14.230469 0.226562 14.195312 0.1875 14.121094 0.1875 L 14.082031 0.1875 C 14.042969 0.1875 14.007812 0.261719 13.96875 0.261719 C 13.144531 0.226562 12.359375 0.113281 11.574219 -0.0390625 C 10.824219 -0.226562 10.039062 -0.488281 9.324219 -0.785156 C 8.578125 -1.085938 7.863281 -1.421875 7.152344 -1.835938 L 7.152344 -1.910156 C 6.328125 -2.433594 5.582031 -3.035156 4.90625 -3.671875 C 4.230469 -4.34375 3.59375 -5.054688 3.070312 -5.878906 C 2.546875 -6.667969 2.171875 -7.527344 1.835938 -8.425781 C 1.761719 -8.578125 1.761719 -8.765625 1.683594 -8.914062 C 1.535156 -9.324219 1.3125 -9.738281 1.234375 -10.1875 C 1.160156 -10.488281 1.199219 -10.785156 1.160156 -11.125 C 1.125 -11.3125 1.011719 -11.5 1.011719 -11.683594 C 0.972656 -11.761719 0.9375 -11.835938 0.9375 -11.910156 C 0.9375 -11.984375 1.011719 -12.097656 0.972656 -12.210938 C 0.9375 -13.183594 0.9375 -14.15625 1.085938 -15.132812 C 1.125 -15.316406 1.199219 -15.46875 1.234375 -15.617188 C 1.273438 -15.769531 1.234375 -15.917969 1.273438 -16.066406 C 1.3125 -16.21875 1.347656 -16.40625 1.386719 -16.554688 L 1.5 -16.855469 C 1.574219 -17.078125 1.609375 -17.304688 1.683594 -17.527344 C 1.761719 -17.714844 1.761719 -17.941406 1.835938 -18.128906 C 2.097656 -18.800781 2.507812 -19.402344 2.882812 -20 C 3.222656 -20.597656 3.707031 -21.125 4.15625 -21.683594 C 4.269531 -21.796875 4.230469 -22.023438 4.34375 -22.136719 C 4.417969 -22.210938 4.570312 -22.246094 4.644531 -22.320312 C 5.242188 -22.996094 5.953125 -23.59375 6.703125 -24.121094 C 7.453125 -24.644531 8.316406 -25.09375 9.136719 -25.429688 C 10 -25.804688 10.863281 -26.105469 11.761719 -26.292969 C 12.359375 -26.40625 12.921875 -26.40625 13.519531 -26.40625 Z M 14.945312 -26.40625 "/></g></g></g><g fill="#000000" fill-opacity="1"><g transform="translate(41.306526, 32.597544)"><g><path d="M 2.507812 -13.109375 C 2.507812 -13.933594 2.433594 -14.792969 2.433594 -15.617188 L 2.433594 -18.089844 C 2.433594 -18.953125 2.507812 -19.773438 2.507812 -20.597656 C 2.507812 -21.421875 2.507812 -22.246094 2.507812 -23.070312 L 2.507812 -25.582031 C 2.507812 -25.691406 2.472656 -25.769531 2.472656 -25.878906 C 2.507812 -26.03125 2.621094 -26.105469 2.773438 -26.140625 L 3.035156 -26.179688 C 3.445312 -26.179688 3.859375 -26.140625 4.230469 -26.140625 C 5.054688 -26.140625 5.84375 -26.21875 6.667969 -26.21875 C 6.742188 -26.21875 6.816406 -26.179688 6.890625 -26.140625 C 7.117188 -26.105469 7.191406 -25.992188 7.191406 -25.804688 C 7.226562 -25.65625 7.265625 -25.46875 7.265625 -25.316406 L 7.265625 -22.285156 C 7.265625 -21.273438 7.226562 -20.261719 7.226562 -19.25 C 7.226562 -18.277344 7.265625 -17.265625 7.265625 -16.253906 C 7.265625 -16.105469 7.226562 -15.992188 7.265625 -15.84375 C 7.339844 -15.65625 7.492188 -15.617188 7.679688 -15.582031 C 7.789062 -15.542969 7.902344 -15.503906 8.015625 -15.503906 C 8.539062 -15.503906 9.0625 -15.429688 9.625 -15.429688 C 9.925781 -15.46875 10.261719 -15.503906 10.5625 -15.617188 C 10.75 -15.691406 10.9375 -15.804688 11.085938 -15.917969 C 11.273438 -16.03125 11.460938 -16.21875 11.609375 -16.367188 C 11.761719 -16.554688 11.835938 -16.742188 11.949219 -16.929688 C 12.023438 -17.117188 12.058594 -17.339844 12.136719 -17.566406 C 12.136719 -17.679688 12.210938 -17.828125 12.210938 -17.976562 C 12.246094 -18.128906 12.171875 -18.277344 12.171875 -18.425781 L 12.171875 -20.824219 C 12.171875 -21.609375 12.246094 -22.398438 12.246094 -23.222656 C 12.246094 -24.007812 12.210938 -24.832031 12.210938 -25.617188 C 12.210938 -25.691406 12.246094 -25.804688 12.285156 -25.878906 C 12.285156 -26.03125 12.359375 -26.066406 12.472656 -26.105469 C 12.585938 -26.140625 12.660156 -26.140625 12.734375 -26.140625 C 13.96875 -26.179688 15.207031 -26.140625 16.40625 -26.140625 C 16.515625 -26.140625 16.589844 -26.179688 16.703125 -26.140625 C 16.777344 -26.105469 16.855469 -26.03125 16.890625 -25.953125 C 16.890625 -25.878906 16.929688 -25.84375 16.929688 -25.769531 C 16.964844 -24.792969 16.890625 -23.78125 16.890625 -22.808594 C 16.890625 -22.097656 16.964844 -21.386719 16.964844 -20.675781 C 16.964844 -19.960938 16.929688 -19.25 16.929688 -18.578125 C 16.929688 -18.464844 16.964844 -18.351562 16.964844 -18.238281 C 16.929688 -18.089844 16.929688 -17.976562 16.929688 -17.863281 C 16.929688 -17.679688 16.890625 -17.492188 16.890625 -17.339844 C 16.855469 -17.078125 16.855469 -16.855469 16.816406 -16.628906 C 16.777344 -16.441406 16.667969 -16.292969 16.628906 -16.105469 C 16.554688 -15.878906 16.515625 -15.617188 16.441406 -15.394531 L 16.328125 -15.09375 C 16.292969 -14.945312 16.21875 -14.832031 16.140625 -14.71875 L 15.804688 -14.195312 C 15.65625 -14.007812 15.582031 -13.78125 15.46875 -13.59375 L 15.132812 -13.296875 C 15.054688 -13.183594 15.09375 -13.035156 15.132812 -12.882812 C 15.132812 -12.773438 15.167969 -12.660156 15.207031 -12.585938 L 15.542969 -12.246094 C 15.65625 -12.097656 15.730469 -11.949219 15.84375 -11.796875 L 16.292969 -11.125 C 16.367188 -10.972656 16.480469 -10.824219 16.554688 -10.636719 C 16.589844 -10.597656 16.589844 -10.488281 16.589844 -10.410156 C 16.742188 -10.148438 16.816406 -9.886719 16.890625 -9.625 C 16.964844 -9.402344 17.003906 -9.175781 17.042969 -8.953125 C 17.042969 -8.800781 17.078125 -8.613281 17.078125 -8.464844 C 17.117188 -7.976562 17.117188 -7.492188 17.117188 -7.003906 C 17.117188 -6.554688 17.152344 -6.066406 17.152344 -5.582031 C 17.152344 -5.09375 17.152344 -4.605469 17.152344 -4.121094 L 17.152344 -0.597656 C 17.152344 -0.523438 17.078125 -0.449219 17.078125 -0.375 C 17.042969 -0.226562 17.003906 -0.113281 16.890625 -0.0742188 C 16.816406 -0.0390625 16.703125 -0.113281 16.667969 -0.113281 C 16.066406 -0.0742188 15.503906 -0.0742188 14.945312 -0.0742188 C 14.34375 -0.0742188 13.78125 0 13.222656 0 C 13.070312 0 12.921875 -0.113281 12.808594 -0.113281 C 12.734375 -0.113281 12.695312 -0.113281 12.621094 -0.148438 C 12.546875 -0.148438 12.472656 -0.1875 12.433594 -0.261719 C 12.398438 -0.300781 12.472656 -0.410156 12.472656 -0.449219 C 12.433594 -1.011719 12.398438 -1.574219 12.398438 -2.136719 L 12.398438 -5.132812 C 12.398438 -6.140625 12.433594 -7.152344 12.433594 -8.128906 C 12.433594 -8.5 12.320312 -8.875 12.171875 -9.214844 C 12.097656 -9.4375 11.910156 -9.589844 11.796875 -9.738281 C 11.683594 -9.886719 11.609375 -10.039062 11.5 -10.113281 C 11.421875 -10.148438 11.386719 -10.226562 11.3125 -10.261719 C 11.046875 -10.449219 10.785156 -10.597656 10.488281 -10.675781 C 10.335938 -10.710938 10.1875 -10.75 10 -10.75 L 9.851562 -10.75 C 9.773438 -10.75 9.699219 -10.710938 9.625 -10.710938 C 9.625 -10.710938 9.589844 -10.75 9.550781 -10.75 C 9.476562 -10.75 9.4375 -10.710938 9.363281 -10.710938 C 8.988281 -10.710938 8.613281 -10.75 8.238281 -10.75 C 8.164062 -10.75 8.128906 -10.75 8.089844 -10.75 L 8.050781 -10.710938 C 7.941406 -10.710938 7.828125 -10.75 7.714844 -10.710938 C 7.601562 -10.710938 7.492188 -10.636719 7.414062 -10.5625 C 7.339844 -10.488281 7.304688 -10.410156 7.265625 -10.300781 L 7.265625 -9.925781 C 7.265625 -8.914062 7.226562 -7.902344 7.226562 -6.929688 C 7.226562 -5.917969 7.265625 -4.90625 7.265625 -3.894531 C 7.265625 -2.882812 7.226562 -1.871094 7.226562 -0.863281 C 7.226562 -0.710938 7.265625 -0.5625 7.265625 -0.410156 C 7.226562 -0.300781 7.152344 -0.226562 7.042969 -0.148438 L 7.003906 -0.113281 C 6.929688 -0.113281 6.855469 -0.0742188 6.777344 -0.0742188 C 5.617188 -0.0390625 4.496094 -0.113281 3.371094 -0.113281 C 3.222656 -0.113281 3.070312 -0.0742188 2.921875 -0.113281 L 2.773438 -0.113281 C 2.621094 -0.148438 2.546875 -0.226562 2.507812 -0.375 C 2.507812 -0.449219 2.472656 -0.523438 2.472656 -0.597656 L 2.472656 -3.109375 C 2.472656 -3.933594 2.507812 -4.792969 2.507812 -5.617188 C 2.507812 -6.441406 2.472656 -7.265625 2.472656 -8.128906 L 2.472656 -10.636719 C 2.472656 -11.460938 2.507812 -12.285156 2.507812 -13.109375 Z M 2.507812 -13.109375 "/></g></g></g><g fill="#000000" fill-opacity="1"><g transform="translate(60.33275, 32.597544)"><g><path d="M 0.9375 -13.59375 C 0.9375 -13.859375 0.972656 -14.121094 1.046875 -14.382812 C 0.863281 -14.457031 1.3125 -16.105469 1.386719 -16.367188 C 1.648438 -17.566406 2.136719 -18.726562 2.695312 -19.773438 C 2.957031 -20.1875 3.222656 -20.636719 3.519531 -21.011719 C 4.15625 -21.871094 4.945312 -22.734375 5.769531 -23.40625 C 5.878906 -23.519531 5.992188 -23.59375 6.105469 -23.671875 C 6.140625 -23.707031 6.21875 -23.746094 6.253906 -23.820312 L 7.414062 -24.605469 C 7.492188 -24.644531 7.640625 -24.644531 7.714844 -24.71875 C 7.828125 -24.757812 7.941406 -24.832031 8.050781 -24.867188 C 8.089844 -24.90625 8.089844 -24.980469 8.128906 -24.980469 C 8.128906 -25.019531 8.164062 -24.980469 8.203125 -24.980469 C 8.277344 -25.054688 8.390625 -25.132812 8.5 -25.167969 C 8.578125 -25.242188 8.6875 -25.242188 8.765625 -25.316406 C 8.839844 -25.316406 8.875 -25.394531 8.914062 -25.394531 C 9.101562 -25.46875 9.289062 -25.503906 9.4375 -25.582031 C 9.589844 -25.617188 9.773438 -25.65625 9.925781 -25.730469 C 10 -25.730469 10.039062 -25.84375 10.113281 -25.84375 C 10.148438 -25.878906 10.226562 -25.878906 10.300781 -25.878906 C 10.335938 -25.917969 10.410156 -25.878906 10.449219 -25.878906 C 10.523438 -25.917969 10.597656 -25.917969 10.675781 -25.953125 C 10.75 -25.953125 10.824219 -26.03125 10.898438 -26.066406 C 10.972656 -26.105469 11.046875 -26.105469 11.125 -26.105469 L 11.871094 -26.292969 C 12.023438 -26.292969 12.210938 -26.292969 12.398438 -26.328125 C 12.507812 -26.328125 12.621094 -26.40625 12.734375 -26.40625 C 12.921875 -26.441406 13.070312 -26.40625 13.257812 -26.441406 C 13.671875 -26.480469 14.082031 -26.367188 14.308594 -25.992188 C 14.382812 -25.878906 14.382812 -25.730469 14.417969 -25.617188 C 14.496094 -24.980469 14.53125 -24.34375 14.53125 -23.707031 C 14.53125 -23.332031 14.53125 -22.957031 14.496094 -22.621094 C 14.457031 -21.910156 14.308594 -21.234375 13.484375 -21.125 L 13.332031 -21.125 C 13.257812 -21.085938 13.183594 -21.125 13.109375 -21.125 L 12.585938 -21.011719 C 10.410156 -20.523438 8.390625 -19.0625 7.304688 -17.117188 C 7.226562 -16.964844 7.226562 -16.816406 7.152344 -16.667969 L 7.003906 -16.40625 C 7.003906 -16.328125 7.078125 -16.292969 7.078125 -16.253906 C 7.078125 -16.179688 7.042969 -16.105469 7.117188 -16.03125 C 7.152344 -15.953125 7.226562 -15.878906 7.304688 -15.84375 C 7.453125 -15.804688 7.566406 -15.84375 7.714844 -15.84375 C 7.863281 -15.84375 8.050781 -15.804688 8.203125 -15.804688 C 8.238281 -15.804688 8.238281 -15.804688 8.238281 -15.804688 L 8.351562 -15.804688 C 8.390625 -15.84375 8.425781 -15.769531 8.464844 -15.769531 C 9.175781 -15.769531 9.886719 -15.769531 10.597656 -15.804688 C 10.972656 -15.804688 11.3125 -15.804688 11.648438 -15.84375 C 11.949219 -15.84375 12.246094 -15.769531 12.546875 -15.769531 L 12.621094 -15.769531 C 12.882812 -15.769531 13.257812 -15.769531 13.484375 -15.691406 C 13.519531 -15.65625 13.519531 -15.65625 13.558594 -15.65625 C 13.78125 -15.503906 13.933594 -15.28125 13.96875 -15.019531 C 14.007812 -14.867188 14.007812 -14.679688 14.007812 -14.53125 C 14.007812 -14.269531 14.007812 -13.96875 14.007812 -13.707031 L 14.007812 -12.320312 C 14.007812 -12.285156 13.96875 -12.246094 13.96875 -12.246094 C 13.96875 -12.210938 14.042969 -12.171875 14.042969 -12.097656 C 14.042969 -11.683594 14.042969 -11.011719 13.671875 -10.710938 C 13.371094 -10.488281 13.070312 -10.449219 12.734375 -10.449219 C 12.507812 -10.449219 12.320312 -10.449219 12.097656 -10.488281 C 11.421875 -10.523438 10.675781 -10.449219 10 -10.449219 C 9.25 -10.449219 8.539062 -10.488281 7.828125 -10.488281 C 7.679688 -10.488281 7.492188 -10.488281 7.339844 -10.410156 C 7.226562 -10.375 7.152344 -10.300781 7.117188 -10.226562 C 7.042969 -10.148438 7.003906 -10.074219 7.003906 -10 C 7.003906 -9.925781 6.964844 -9.851562 7.003906 -9.773438 C 7.003906 -9.664062 7.078125 -9.589844 7.152344 -9.476562 C 7.152344 -9.4375 7.152344 -9.402344 7.152344 -9.363281 L 7.414062 -8.914062 C 7.527344 -8.6875 7.753906 -8.5 7.902344 -8.277344 C 8.164062 -7.902344 8.464844 -7.640625 8.800781 -7.304688 C 8.953125 -7.191406 9.027344 -7.003906 9.175781 -6.855469 C 9.550781 -6.554688 10.113281 -6.292969 10.5625 -6.03125 C 11.199219 -5.691406 11.910156 -5.394531 12.621094 -5.242188 C 12.695312 -5.207031 12.808594 -5.207031 12.921875 -5.207031 C 13.070312 -5.167969 13.222656 -5.167969 13.332031 -5.132812 C 13.519531 -5.09375 13.671875 -5.054688 13.859375 -4.980469 C 13.96875 -4.945312 14.042969 -4.867188 14.15625 -4.757812 C 14.230469 -4.679688 14.308594 -4.644531 14.34375 -4.570312 C 14.457031 -4.382812 14.457031 -4.269531 14.457031 -4.15625 C 14.457031 -4.082031 14.457031 -4.007812 14.457031 -3.933594 L 14.457031 -3.78125 C 14.496094 -3.484375 14.496094 -3.183594 14.496094 -2.882812 C 14.496094 -2.546875 14.496094 -2.246094 14.457031 -1.910156 C 14.457031 -1.609375 14.457031 -1.3125 14.417969 -1.011719 C 14.417969 -0.785156 14.457031 -0.449219 14.382812 -0.261719 C 14.382812 -0.1875 14.308594 -0.113281 14.269531 -0.0390625 L 14.15625 0.0390625 C 14.121094 0.0742188 14.007812 0.113281 13.96875 0.113281 C 13.746094 0.226562 13.558594 0.261719 13.371094 0.261719 C 13.222656 0.261719 13.070312 0.261719 12.957031 0.1875 C 12.808594 0.148438 12.660156 0.1875 12.507812 0.1875 C 12.285156 0.148438 12.058594 0.113281 11.871094 0.0390625 C 11.835938 0.0390625 11.761719 0.0742188 11.722656 0.0390625 C 11.574219 0.0390625 11.460938 -0.0742188 11.3125 -0.113281 C 11.234375 -0.148438 11.125 -0.0742188 11.011719 -0.113281 C 10.824219 -0.148438 10.597656 -0.226562 10.410156 -0.300781 C 10.039062 -0.449219 9.664062 -0.636719 9.289062 -0.75 C 8.953125 -0.863281 8.613281 -0.9375 8.316406 -1.085938 C 8.238281 -1.125 8.164062 -1.199219 8.238281 -1.273438 C 8.015625 -1.085938 6.890625 -2.023438 6.742188 -2.136719 C 6.589844 -2.210938 6.441406 -2.246094 6.292969 -2.359375 C 6.179688 -2.472656 6.03125 -2.585938 5.878906 -2.695312 C 5.582031 -2.921875 5.316406 -3.257812 5.019531 -3.519531 C 4.496094 -3.96875 3.96875 -4.605469 3.519531 -5.167969 L 3.222656 -5.582031 C 3.070312 -5.804688 2.996094 -6.066406 2.847656 -6.328125 C 2.773438 -6.441406 2.695312 -6.515625 2.621094 -6.628906 L 2.585938 -6.777344 C 2.359375 -7.152344 2.097656 -7.566406 1.949219 -7.941406 C 1.796875 -8.425781 1.574219 -8.875 1.460938 -9.324219 L 1.347656 -9.699219 C 1.3125 -9.8125 1.347656 -9.925781 1.3125 -10.039062 C 1.273438 -10.1875 1.273438 -10.300781 1.273438 -10.449219 C 1.234375 -10.597656 1.125 -10.710938 1.085938 -10.863281 C 1.046875 -11.085938 1.046875 -11.3125 1.011719 -11.535156 C 0.972656 -11.835938 0.972656 -12.097656 0.972656 -12.398438 C 0.9375 -12.773438 0.9375 -13.183594 0.9375 -13.59375 Z M 0.9375 -13.59375 "/></g></g></g><g fill="#000000" fill-opacity="1"><g transform="translate(76.737233, 32.597544)"><g><path d="M 1.910156 -13.183594 C 1.910156 -13.96875 1.871094 -14.792969 1.871094 -15.582031 C 1.871094 -16.40625 1.949219 -17.191406 1.949219 -18.015625 C 1.949219 -18.800781 1.871094 -19.625 1.871094 -20.410156 L 1.871094 -22.847656 C 1.871094 -23.632812 1.910156 -24.457031 1.910156 -25.242188 C 1.910156 -25.429688 1.910156 -25.582031 1.949219 -25.730469 C 1.984375 -25.878906 2.097656 -25.992188 2.210938 -26.066406 C 2.320312 -26.140625 2.433594 -26.105469 2.585938 -26.140625 C 2.882812 -26.179688 3.183594 -26.21875 3.484375 -26.21875 C 4.457031 -26.21875 5.429688 -26.105469 6.40625 -26.105469 C 8.015625 -26.140625 9.175781 -26.179688 9.324219 -26.140625 C 9.511719 -26.140625 9.699219 -26.179688 9.851562 -26.179688 L 10.148438 -26.179688 C 10.261719 -26.140625 10.375 -26.105469 10.449219 -26.105469 C 10.785156 -26.066406 11.085938 -25.917969 11.386719 -25.84375 C 11.683594 -25.769531 11.984375 -25.691406 12.285156 -25.582031 L 12.808594 -25.355469 C 12.921875 -25.316406 13.070312 -25.207031 13.183594 -25.132812 C 13.332031 -25.09375 13.445312 -25.019531 13.558594 -24.980469 C 13.59375 -24.945312 13.671875 -24.980469 13.707031 -24.980469 L 14.53125 -24.417969 C 14.644531 -24.308594 14.792969 -24.15625 14.945312 -24.042969 C 15.054688 -23.933594 15.207031 -23.78125 15.355469 -23.671875 C 15.503906 -23.519531 15.582031 -23.332031 15.730469 -23.183594 C 15.878906 -22.996094 16.105469 -22.847656 16.253906 -22.621094 C 16.367188 -22.472656 16.480469 -22.285156 16.589844 -22.097656 C 16.742188 -21.910156 16.855469 -21.722656 16.964844 -21.535156 L 17.003906 -21.386719 C 17.152344 -21.125 17.226562 -20.824219 17.339844 -20.523438 C 17.453125 -20.261719 17.492188 -20 17.566406 -19.738281 C 17.640625 -19.550781 17.714844 -19.324219 17.753906 -19.136719 C 17.828125 -18.914062 17.789062 -18.6875 17.828125 -18.464844 C 17.828125 -18.316406 17.941406 -18.164062 17.941406 -17.976562 C 17.941406 -17.976562 17.902344 -17.976562 17.902344 -17.976562 L 17.902344 -17.226562 C 17.902344 -17.078125 17.863281 -16.929688 17.863281 -16.777344 C 17.863281 -16.667969 17.863281 -16.589844 17.863281 -16.515625 L 17.753906 -15.769531 C 17.714844 -15.582031 17.714844 -15.394531 17.679688 -15.207031 C 17.601562 -14.945312 17.453125 -14.71875 17.339844 -14.457031 C 17.265625 -14.269531 17.226562 -14.042969 17.152344 -13.859375 C 17.042969 -13.707031 16.964844 -13.519531 16.890625 -13.371094 C 16.816406 -13.222656 16.777344 -13.035156 16.703125 -12.882812 C 16.589844 -12.695312 16.441406 -12.585938 16.328125 -12.433594 C 16.179688 -12.210938 16.03125 -11.984375 15.878906 -11.796875 C 15.84375 -11.722656 15.84375 -11.683594 15.84375 -11.609375 C 15.804688 -11.5 15.769531 -11.386719 15.84375 -11.273438 C 15.917969 -11.160156 15.992188 -11.046875 16.105469 -10.9375 C 16.253906 -10.675781 16.480469 -10.449219 16.628906 -10.1875 C 16.742188 -9.960938 16.855469 -9.699219 16.929688 -9.476562 C 17.003906 -9.324219 17.117188 -9.214844 17.152344 -9.0625 C 17.265625 -8.800781 17.265625 -8.539062 17.339844 -8.238281 C 17.378906 -8.015625 17.527344 -7.753906 17.527344 -7.527344 C 17.566406 -7.378906 17.492188 -7.191406 17.492188 -7.042969 L 17.492188 -6.367188 C 17.492188 -5.429688 17.527344 -4.496094 17.527344 -3.59375 C 17.527344 -2.660156 17.527344 -1.722656 17.527344 -0.824219 L 17.527344 -0.523438 C 17.492188 -0.410156 17.453125 -0.300781 17.378906 -0.226562 L 17.265625 -0.113281 C 17.152344 -0.0390625 17.003906 0 16.890625 0 C 16.855469 0 16.855469 0 16.816406 0 L 12.996094 0 C 12.882812 0 12.773438 -0.0390625 12.660156 -0.0742188 C 12.472656 -0.148438 12.285156 -0.261719 12.246094 -0.488281 C 12.246094 -0.5625 12.320312 -0.675781 12.320312 -0.75 C 12.320312 -1.609375 12.285156 -2.472656 12.285156 -3.332031 C 12.285156 -4.195312 12.320312 -5.054688 12.320312 -5.917969 C 12.285156 -6.140625 12.210938 -6.40625 12.210938 -6.628906 C 12.171875 -6.964844 12.136719 -7.265625 12.023438 -7.527344 C 11.910156 -7.714844 11.835938 -7.941406 11.683594 -8.089844 C 11.5 -8.277344 11.273438 -8.390625 11.011719 -8.5 C 10.898438 -8.578125 10.75 -8.578125 10.636719 -8.613281 C 10.410156 -8.652344 10.1875 -8.765625 9.960938 -8.765625 L 9.925781 -8.765625 C 9.625 -8.765625 9.324219 -8.726562 8.988281 -8.726562 C 8.6875 -8.726562 8.390625 -8.6875 8.050781 -8.6875 L 7.566406 -8.6875 C 7.492188 -8.652344 7.339844 -8.6875 7.265625 -8.613281 C 7.226562 -8.578125 7.191406 -8.539062 7.191406 -8.5 C 7.152344 -8.425781 7.152344 -8.316406 7.152344 -8.203125 C 7.117188 -7.414062 7.191406 -6.589844 7.191406 -5.804688 C 7.191406 -5.019531 7.152344 -4.195312 7.152344 -3.410156 C 7.152344 -2.621094 7.191406 -1.796875 7.191406 -1.011719 C 7.191406 -0.898438 7.117188 -0.824219 7.078125 -0.710938 C 7.078125 -0.5625 7.042969 -0.410156 6.890625 -0.335938 C 6.855469 -0.300781 6.777344 -0.261719 6.667969 -0.226562 C 6.589844 -0.226562 6.480469 -0.1875 6.367188 -0.1875 C 5.132812 -0.1875 3.933594 -0.226562 2.734375 -0.226562 C 2.621094 -0.226562 2.472656 -0.148438 2.398438 -0.1875 C 2.171875 -0.226562 2.058594 -0.410156 1.984375 -0.636719 L 1.871094 -0.972656 C 1.871094 -1.046875 1.949219 -1.160156 1.949219 -1.234375 L 1.949219 -4.230469 C 1.949219 -5.242188 1.949219 -6.21875 1.949219 -7.226562 L 1.949219 -10.1875 C 1.949219 -11.199219 1.910156 -12.171875 1.910156 -13.183594 Z M 7.152344 -17.414062 C 7.152344 -16.554688 7.191406 -15.730469 7.191406 -14.867188 C 7.191406 -14.757812 7.152344 -14.644531 7.152344 -14.496094 L 7.152344 -14.417969 C 7.152344 -14.34375 7.226562 -14.308594 7.226562 -14.269531 C 7.265625 -14.195312 7.304688 -14.15625 7.378906 -14.082031 C 7.453125 -14.042969 7.527344 -13.96875 7.640625 -13.96875 L 8.539062 -13.96875 C 8.839844 -14.007812 9.136719 -13.96875 9.4375 -14.007812 C 9.589844 -14.007812 9.773438 -13.96875 9.925781 -14.007812 C 10.300781 -14.082031 10.597656 -14.308594 10.9375 -14.496094 C 11.125 -14.605469 11.347656 -14.644531 11.5 -14.792969 C 11.609375 -14.90625 11.722656 -15.019531 11.835938 -15.167969 C 11.984375 -15.316406 12.097656 -15.582031 12.210938 -15.769531 C 12.320312 -15.953125 12.359375 -16.140625 12.433594 -16.328125 C 12.507812 -16.515625 12.585938 -16.703125 12.585938 -16.929688 C 12.621094 -17.078125 12.695312 -17.191406 12.695312 -17.339844 C 12.734375 -17.527344 12.660156 -17.679688 12.660156 -17.863281 C 12.621094 -18.128906 12.546875 -18.351562 12.472656 -18.613281 C 12.398438 -18.839844 12.285156 -19.101562 12.136719 -19.324219 L 11.761719 -19.773438 C 11.648438 -19.925781 11.421875 -20 11.273438 -20.113281 C 11.085938 -20.226562 10.9375 -20.335938 10.75 -20.449219 L 10.226562 -20.675781 C 10.074219 -20.710938 9.960938 -20.75 9.8125 -20.75 C 9.738281 -20.785156 9.625 -20.863281 9.550781 -20.863281 C 9.4375 -20.863281 9.289062 -20.824219 9.175781 -20.824219 L 7.714844 -20.824219 C 7.640625 -20.824219 7.566406 -20.785156 7.492188 -20.785156 C 7.339844 -20.785156 7.265625 -20.636719 7.226562 -20.523438 C 7.226562 -20.335938 7.152344 -20.1875 7.152344 -20 Z M 7.152344 -17.414062 "/></g></g></g><g fill="#000000" fill-opacity="1"><g transform="translate(95.988159, 32.597544)"><g><path d="M 19.589844 -10.113281 C 19.589844 -11.046875 19.625 -12.023438 19.625 -12.957031 C 19.625 -13.894531 19.589844 -14.832031 19.589844 -15.804688 L 19.589844 -18.613281 C 19.589844 -18.765625 19.625 -18.914062 19.625 -19.027344 C 19.625 -19.0625 19.625 -19.101562 19.589844 -19.136719 C 19.589844 -19.25 19.511719 -19.324219 19.511719 -19.4375 C 19.476562 -19.589844 19.511719 -19.738281 19.4375 -19.886719 C 19.402344 -20.039062 19.324219 -20.148438 19.214844 -20.300781 C 19.0625 -20.523438 18.800781 -20.710938 18.5 -20.785156 C 18.390625 -20.863281 18.238281 -20.9375 18.128906 -20.9375 C 17.941406 -20.9375 17.789062 -20.863281 17.640625 -20.824219 C 17.414062 -20.75 17.191406 -20.675781 17.042969 -20.523438 C 16.855469 -20.375 16.742188 -20.1875 16.628906 -20 L 16.515625 -19.664062 C 16.480469 -19.589844 16.367188 -19.511719 16.328125 -19.402344 C 16.292969 -19.25 16.328125 -19.0625 16.328125 -18.914062 C 16.292969 -18.613281 16.253906 -18.277344 16.253906 -17.976562 C 16.253906 -17.078125 16.328125 -16.140625 16.328125 -15.207031 C 16.328125 -14.308594 16.292969 -13.371094 16.292969 -12.472656 C 16.292969 -11.535156 16.292969 -10.636719 16.292969 -9.699219 L 16.292969 -6.964844 C 16.292969 -6.03125 16.328125 -5.132812 16.328125 -4.195312 C 16.328125 -3.296875 16.253906 -2.359375 16.253906 -1.460938 C 16.253906 -1.234375 16.292969 -1.011719 16.21875 -0.824219 C 16.179688 -0.597656 16.105469 -0.449219 15.953125 -0.300781 C 15.84375 -0.226562 15.769531 -0.148438 15.65625 -0.113281 C 15.503906 -0.0742188 15.316406 -0.0742188 15.132812 -0.0742188 C 15.054688 -0.0742188 14.980469 -0.0742188 14.867188 -0.113281 C 14.757812 -0.113281 14.644531 -0.0742188 14.53125 -0.0390625 L 14.457031 -0.0390625 C 13.933594 -0.0390625 13.410156 -0.0390625 12.882812 -0.0390625 L 12.472656 -0.0390625 C 12.433594 -0.0390625 12.398438 -0.0742188 12.359375 -0.0390625 L 12.320312 -0.0742188 C 12.210938 -0.0742188 12.097656 -0.0390625 12.023438 -0.0742188 C 11.984375 -0.0742188 11.984375 -0.0390625 11.984375 -0.0390625 C 11.835938 -0.0390625 11.683594 -0.0742188 11.535156 -0.148438 C 11.347656 -0.226562 11.234375 -0.410156 11.125 -0.597656 C 11.085938 -0.710938 11.046875 -0.824219 11.046875 -0.9375 C 11.011719 -1.046875 11.011719 -1.125 11.011719 -1.234375 C 10.972656 -1.5 11.011719 -1.796875 11.011719 -2.058594 C 11.011719 -2.996094 11.046875 -3.894531 11.046875 -4.832031 C 11.046875 -5.730469 11.011719 -6.628906 11.011719 -7.566406 L 11.011719 -10.300781 C 11.011719 -11.199219 11.046875 -12.136719 11.046875 -13.035156 C 11.046875 -13.96875 11.011719 -14.867188 11.011719 -15.769531 C 11.011719 -16.703125 11.085938 -17.601562 11.085938 -18.539062 C 11.085938 -18.6875 10.972656 -18.839844 10.972656 -19.027344 C 10.9375 -19.136719 10.972656 -19.289062 10.972656 -19.4375 L 10.972656 -19.589844 C 10.898438 -19.773438 10.785156 -19.925781 10.710938 -20.074219 C 10.636719 -20.1875 10.636719 -20.335938 10.523438 -20.449219 C 10.488281 -20.488281 10.410156 -20.523438 10.335938 -20.597656 C 10.1875 -20.710938 10 -20.785156 9.773438 -20.863281 C 9.699219 -20.863281 9.589844 -20.9375 9.476562 -20.898438 L 9.324219 -20.863281 C 9.136719 -20.863281 9.027344 -20.785156 8.839844 -20.710938 C 8.6875 -20.636719 8.5 -20.523438 8.390625 -20.410156 C 8.316406 -20.335938 8.238281 -20.300781 8.203125 -20.226562 C 8.015625 -19.960938 7.828125 -19.699219 7.753906 -19.402344 C 7.753906 -19.25 7.789062 -19.101562 7.789062 -18.988281 L 7.789062 -18.914062 C 7.753906 -18.6875 7.714844 -18.464844 7.714844 -18.238281 C 7.714844 -17.339844 7.753906 -16.480469 7.753906 -15.582031 C 7.753906 -14.679688 7.714844 -13.78125 7.714844 -12.882812 L 7.714844 -10.226562 C 7.714844 -9.324219 7.753906 -8.425781 7.753906 -7.527344 C 7.753906 -6.628906 7.753906 -5.769531 7.753906 -4.867188 L 7.753906 -2.171875 C 7.753906 -2.023438 7.753906 -1.835938 7.753906 -1.648438 L 7.753906 -1.046875 C 7.753906 -0.863281 7.640625 -0.710938 7.527344 -0.5625 C 7.453125 -0.410156 7.378906 -0.226562 7.226562 -0.148438 C 7.117188 -0.113281 7.003906 -0.0742188 6.890625 -0.0742188 C 6.816406 -0.0390625 6.742188 -0.0742188 6.628906 -0.0742188 C 6.589844 -0.0390625 6.515625 -0.0742188 6.480469 -0.0390625 L 6.441406 -0.0390625 C 6.253906 -0.0742188 6.105469 -0.0390625 5.953125 0 L 5.878906 0 C 5.355469 0 4.832031 -0.113281 4.308594 -0.113281 C 4.15625 -0.113281 4.046875 -0.0742188 3.894531 -0.0390625 C 3.859375 -0.0390625 3.820312 -0.0742188 3.78125 -0.0742188 C 3.746094 -0.0742188 3.746094 -0.113281 3.746094 -0.113281 C 3.558594 -0.113281 3.410156 -0.113281 3.257812 -0.148438 C 3.109375 -0.1875 2.957031 -0.1875 2.847656 -0.300781 C 2.734375 -0.375 2.695312 -0.449219 2.660156 -0.5625 C 2.585938 -0.710938 2.472656 -0.863281 2.472656 -1.046875 C 2.472656 -1.234375 2.507812 -1.421875 2.507812 -1.609375 L 2.507812 -1.722656 C 2.472656 -2.058594 2.433594 -2.398438 2.433594 -2.734375 C 2.433594 -3.070312 2.507812 -3.410156 2.507812 -3.746094 C 2.507812 -4.644531 2.433594 -5.582031 2.433594 -6.515625 C 2.433594 -7.453125 2.433594 -8.390625 2.433594 -9.324219 L 2.433594 -12.097656 C 2.433594 -13.035156 2.472656 -13.96875 2.472656 -14.867188 L 2.472656 -17.679688 C 2.507812 -18.128906 2.398438 -18.613281 2.433594 -19.0625 C 2.433594 -19.214844 2.507812 -19.363281 2.507812 -19.511719 C 2.546875 -19.625 2.472656 -19.699219 2.472656 -19.8125 C 2.507812 -19.925781 2.546875 -20.039062 2.546875 -20.113281 C 2.585938 -20.410156 2.695312 -20.675781 2.773438 -20.972656 C 2.773438 -21.046875 2.808594 -21.125 2.808594 -21.160156 C 2.808594 -21.234375 2.773438 -21.273438 2.773438 -21.347656 C 2.847656 -21.460938 2.921875 -21.574219 2.996094 -21.722656 C 3.035156 -21.835938 3.035156 -21.949219 3.070312 -22.058594 C 3.109375 -22.097656 3.144531 -22.171875 3.144531 -22.210938 C 3.332031 -22.546875 3.558594 -22.847656 3.78125 -23.183594 C 3.933594 -23.371094 4.082031 -23.558594 4.230469 -23.707031 C 4.382812 -23.894531 4.53125 -24.082031 4.71875 -24.269531 C 4.867188 -24.417969 4.980469 -24.570312 5.167969 -24.679688 C 5.28125 -24.792969 5.429688 -24.867188 5.582031 -24.980469 C 5.769531 -25.09375 5.878906 -25.242188 6.03125 -25.355469 C 6.253906 -25.46875 6.480469 -25.542969 6.667969 -25.65625 C 6.816406 -25.691406 6.929688 -25.769531 7.078125 -25.804688 C 7.152344 -25.84375 7.265625 -25.84375 7.378906 -25.878906 C 7.527344 -25.917969 7.679688 -25.917969 7.828125 -25.953125 C 8.015625 -25.992188 8.238281 -26.105469 8.425781 -26.140625 C 8.578125 -26.140625 8.6875 -26.105469 8.839844 -26.140625 L 8.988281 -26.140625 C 9.25 -26.179688 9.550781 -26.21875 9.8125 -26.21875 C 10.1875 -26.179688 10.5625 -26.105469 10.375 -26.140625 C 10.5625 -26.105469 10.785156 -26.105469 10.972656 -26.066406 C 11.125 -26.03125 11.234375 -25.953125 11.347656 -25.917969 C 11.5 -25.84375 11.683594 -25.84375 11.835938 -25.804688 C 11.984375 -25.730469 12.171875 -25.691406 12.320312 -25.617188 C 12.507812 -25.542969 12.695312 -25.46875 12.882812 -25.355469 C 13.035156 -25.28125 13.109375 -25.09375 13.296875 -25.019531 C 13.410156 -24.980469 13.558594 -24.980469 13.671875 -24.945312 C 13.78125 -24.945312 13.894531 -24.945312 13.96875 -24.980469 C 14.15625 -25.019531 14.308594 -25.167969 14.457031 -25.242188 C 14.71875 -25.394531 14.945312 -25.503906 15.207031 -25.617188 C 15.355469 -25.65625 15.503906 -25.769531 15.691406 -25.804688 C 15.804688 -25.84375 15.917969 -25.84375 16.03125 -25.878906 C 16.21875 -25.917969 16.40625 -26.03125 16.589844 -26.066406 C 16.777344 -26.140625 16.964844 -26.105469 17.152344 -26.140625 C 17.941406 -26.21875 19.960938 -26.253906 18.726562 -26.179688 C 18.988281 -26.140625 19.25 -26.066406 19.511719 -26.03125 L 19.925781 -25.953125 C 20.148438 -25.917969 20.375 -25.804688 20.597656 -25.691406 C 20.863281 -25.582031 21.160156 -25.46875 21.421875 -25.316406 L 21.761719 -25.132812 C 21.910156 -25.019531 22.023438 -24.90625 22.171875 -24.832031 L 22.398438 -24.605469 C 22.433594 -24.605469 22.398438 -24.570312 22.398438 -24.570312 C 22.585938 -24.417969 22.773438 -24.308594 22.921875 -24.15625 C 23.144531 -23.894531 23.371094 -23.632812 23.558594 -23.371094 C 23.707031 -23.183594 23.78125 -22.957031 23.859375 -22.734375 C 23.96875 -22.546875 24.121094 -22.398438 24.195312 -22.210938 C 24.308594 -22.023438 24.34375 -21.796875 24.417969 -21.574219 C 24.53125 -21.3125 24.605469 -21.085938 24.644531 -20.863281 C 24.71875 -20.636719 24.757812 -20.449219 24.792969 -20.261719 C 24.832031 -20.074219 24.757812 -19.925781 24.757812 -19.773438 C 24.757812 -19.664062 24.867188 -19.550781 24.867188 -19.4375 C 24.867188 -19.402344 24.832031 -19.363281 24.832031 -19.324219 L 24.867188 -19.101562 C 24.90625 -19.101562 24.832031 -18.464844 24.832031 -18.5 C 24.832031 -18.277344 24.90625 -18.089844 24.90625 -17.863281 C 24.90625 -17.679688 24.832031 -17.492188 24.832031 -17.265625 C 24.832031 -16.40625 24.90625 -15.503906 24.90625 -14.644531 L 24.90625 -11.984375 C 24.90625 -11.125 24.90625 -10.226562 24.90625 -9.363281 L 24.90625 -6.703125 C 24.90625 -5.84375 24.832031 -4.945312 24.832031 -4.082031 C 24.832031 -3.222656 24.867188 -2.320312 24.867188 -1.460938 C 24.867188 -1.234375 24.867188 -1.011719 24.832031 -0.824219 C 24.757812 -0.597656 24.644531 -0.449219 24.496094 -0.300781 C 24.417969 -0.226562 24.308594 -0.1875 24.195312 -0.148438 C 24.042969 -0.0742188 23.859375 -0.113281 23.707031 -0.113281 C 23.671875 -0.113281 23.632812 -0.0390625 23.632812 -0.0390625 L 23.558594 -0.0390625 C 23.40625 -0.0742188 23.257812 -0.0390625 23.109375 0 C 23.070312 0 23.035156 -0.0742188 23.035156 -0.0742188 C 22.507812 -0.0742188 21.984375 -0.0390625 21.421875 -0.0742188 L 21.046875 -0.0742188 C 21.011719 -0.0742188 20.972656 -0.0390625 20.9375 -0.0390625 C 20.898438 -0.0390625 20.898438 0 20.898438 0 C 20.785156 -0.0390625 20.675781 -0.0742188 20.5625 -0.0742188 C 20.5625 -0.0742188 20.5625 -0.113281 20.523438 -0.113281 C 20.410156 -0.113281 20.261719 -0.113281 20.113281 -0.148438 C 19.960938 -0.226562 19.851562 -0.375 19.773438 -0.523438 C 19.699219 -0.675781 19.625 -0.785156 19.625 -0.9375 C 19.625 -1.046875 19.664062 -1.160156 19.625 -1.234375 C 19.589844 -1.535156 19.625 -1.835938 19.625 -2.097656 C 19.625 -2.996094 19.625 -3.894531 19.625 -4.792969 L 19.625 -7.453125 C 19.625 -8.351562 19.625 -9.214844 19.625 -10.113281 Z M 19.589844 -10.113281 "/></g></g></g><g fill="#000000" fill-opacity="1"><g transform="translate(123.328976, 32.597544)"><g><path d="M 16.855469 -13.109375 C 16.855469 -12.285156 16.890625 -11.460938 16.890625 -10.597656 C 16.890625 -9.773438 16.929688 -8.953125 16.929688 -8.128906 L 16.929688 -5.617188 C 16.929688 -4.792969 16.890625 -3.933594 16.890625 -3.109375 C 16.890625 -2.285156 16.855469 -1.460938 16.855469 -0.597656 C 16.855469 -0.523438 16.929688 -0.410156 16.929688 -0.300781 C 16.929688 -0.1875 16.777344 -0.0390625 16.667969 0 L 16.515625 0 C 16.253906 0.0390625 15.953125 0.0390625 15.691406 0.0390625 C 14.570312 0.0390625 13.484375 -0.0390625 12.359375 -0.0390625 C 12.246094 -0.0390625 12.097656 0.0390625 11.984375 0 C 11.871094 -0.0390625 11.796875 -0.1875 11.796875 -0.335938 C 11.761719 -0.449219 11.683594 -0.597656 11.683594 -0.710938 C 11.683594 -1.460938 11.722656 -2.171875 11.722656 -2.921875 C 11.722656 -3.671875 11.796875 -4.382812 11.796875 -5.132812 C 11.796875 -5.207031 11.761719 -5.28125 11.761719 -5.316406 C 11.722656 -5.429688 11.609375 -5.46875 11.535156 -5.503906 L 11.3125 -5.503906 C 10 -5.503906 8.726562 -5.582031 7.453125 -5.582031 C 7.378906 -5.582031 7.304688 -5.582031 7.226562 -5.542969 C 7.117188 -5.542969 7.042969 -5.46875 7.042969 -5.355469 C 7.003906 -5.28125 7.003906 -5.167969 7.003906 -5.09375 C 7.003906 -4.71875 6.964844 -4.34375 6.964844 -4.007812 C 6.964844 -2.847656 7.003906 -1.683594 7.003906 -0.523438 C 7.003906 -0.449219 7.042969 -0.375 7.042969 -0.300781 C 7.003906 -0.113281 6.855469 0 6.667969 0.0390625 C 6.515625 0.0390625 6.367188 0 6.21875 0 C 4.980469 0 3.746094 -0.0390625 2.507812 -0.0390625 C 2.398438 -0.0390625 2.285156 -0.0390625 2.171875 -0.0742188 C 2.058594 -0.113281 1.949219 -0.1875 1.949219 -0.300781 C 1.910156 -0.410156 1.871094 -0.523438 1.871094 -0.636719 C 1.871094 -1.574219 1.871094 -2.507812 1.871094 -3.445312 L 1.871094 -6.253906 C 1.871094 -7.191406 1.949219 -8.128906 1.949219 -9.0625 C 1.949219 -10 1.910156 -10.9375 1.910156 -11.871094 C 1.910156 -12.773438 1.910156 -13.707031 1.910156 -14.644531 L 1.910156 -15.316406 C 1.949219 -15.503906 1.949219 -15.691406 1.984375 -15.878906 C 1.984375 -16.066406 2.023438 -16.292969 2.023438 -16.480469 C 2.058594 -16.929688 2.097656 -17.378906 2.210938 -17.789062 C 2.246094 -18.050781 2.359375 -18.316406 2.433594 -18.578125 C 2.507812 -18.875 2.585938 -19.136719 2.695312 -19.4375 C 2.773438 -19.699219 2.882812 -19.960938 2.996094 -20.226562 C 3.070312 -20.375 3.070312 -20.523438 3.144531 -20.675781 C 3.257812 -20.898438 3.371094 -21.085938 3.484375 -21.273438 C 3.558594 -21.421875 3.59375 -21.574219 3.671875 -21.683594 C 3.746094 -21.796875 3.859375 -21.871094 3.933594 -21.984375 C 4.046875 -22.136719 4.082031 -22.285156 4.195312 -22.398438 L 4.570312 -22.847656 C 4.792969 -23.109375 5.019531 -23.332031 5.28125 -23.558594 C 5.394531 -23.671875 5.542969 -23.746094 5.65625 -23.820312 C 5.691406 -23.894531 5.730469 -24.007812 5.804688 -24.042969 C 5.953125 -24.15625 6.105469 -24.195312 6.253906 -24.308594 C 6.480469 -24.457031 6.667969 -24.679688 6.890625 -24.792969 L 7.226562 -24.980469 C 7.304688 -24.980469 7.378906 -24.980469 7.414062 -25.019531 C 7.527344 -25.054688 7.601562 -25.132812 7.714844 -25.167969 C 7.902344 -25.28125 8.128906 -25.394531 8.351562 -25.46875 C 8.5 -25.542969 8.652344 -25.582031 8.800781 -25.617188 C 9.0625 -25.691406 9.324219 -25.769531 9.550781 -25.804688 C 9.886719 -25.917969 10.226562 -25.992188 10.523438 -26.066406 C 10.75 -26.105469 10.972656 -26.066406 11.160156 -26.105469 C 11.3125 -26.105469 11.5 -26.140625 11.648438 -26.140625 C 11.835938 -26.179688 12.058594 -26.179688 12.246094 -26.179688 C 12.507812 -26.21875 12.734375 -26.253906 12.996094 -26.253906 L 14.980469 -26.253906 C 15.542969 -26.21875 16.628906 -26.03125 16.816406 -25.207031 C 17.003906 -24.457031 16.929688 -23.707031 16.929688 -22.957031 C 16.929688 -22.246094 16.929688 -21.574219 16.929688 -20.898438 L 16.929688 -20.636719 C 16.929688 -19.8125 16.890625 -18.953125 16.890625 -18.128906 C 16.890625 -17.304688 16.855469 -16.441406 16.855469 -15.617188 Z M 11.796875 -15.84375 C 11.796875 -16.628906 11.761719 -17.414062 11.761719 -18.203125 C 11.761719 -18.988281 11.722656 -19.773438 11.722656 -20.5625 L 11.722656 -20.675781 C 11.722656 -20.75 11.722656 -20.824219 11.683594 -20.898438 C 11.609375 -20.972656 11.535156 -21.011719 11.460938 -21.011719 C 11.347656 -21.011719 11.273438 -20.9375 11.199219 -20.9375 C 11.046875 -20.898438 10.9375 -20.898438 10.824219 -20.898438 C 10.597656 -20.824219 10.410156 -20.785156 10.226562 -20.75 C 10.074219 -20.710938 9.925781 -20.636719 9.8125 -20.597656 C 9.699219 -20.523438 9.550781 -20.523438 9.4375 -20.488281 C 9.136719 -20.335938 8.953125 -20.113281 8.6875 -19.886719 C 8.5 -19.738281 8.316406 -19.589844 8.164062 -19.402344 C 8.015625 -19.175781 7.902344 -18.875 7.789062 -18.613281 C 7.679688 -18.425781 7.566406 -18.277344 7.492188 -18.050781 C 7.378906 -17.753906 7.265625 -17.453125 7.191406 -17.152344 C 7.117188 -16.777344 7.078125 -16.441406 7.042969 -16.066406 C 7.042969 -15.878906 7.078125 -15.691406 7.042969 -15.503906 L 7.042969 -14.90625 C 7.042969 -14.53125 6.964844 -14.15625 6.964844 -13.78125 L 6.964844 -11.125 C 6.964844 -11.011719 7.003906 -10.9375 7.042969 -10.863281 C 7.042969 -10.75 7.152344 -10.675781 7.226562 -10.675781 C 7.304688 -10.636719 7.378906 -10.636719 7.453125 -10.636719 C 8.726562 -10.636719 10.039062 -10.636719 11.3125 -10.675781 C 11.386719 -10.675781 11.460938 -10.710938 11.535156 -10.710938 C 11.609375 -10.75 11.648438 -10.785156 11.683594 -10.898438 L 11.722656 -11.046875 C 11.722656 -11.871094 11.796875 -12.660156 11.796875 -13.445312 Z M 11.796875 -15.84375 "/></g></g></g><g fill="#000000" fill-opacity="1"><g transform="translate(142.692272, 32.597544)"><g><path d="M 6.777344 -0.0390625 C 6.292969 -0.0390625 5.804688 0 5.28125 0 C 4.496094 0 3.746094 0.0390625 2.957031 0.0390625 C 2.882812 0.0390625 2.773438 -0.0390625 2.695312 -0.0742188 C 2.621094 -0.0742188 2.507812 -0.0742188 2.472656 -0.1875 C 2.472656 -0.226562 2.472656 -0.261719 2.433594 -0.300781 L 2.472656 -0.335938 C 2.472656 -0.375 2.507812 -0.410156 2.507812 -0.410156 C 2.507812 -0.449219 2.433594 -0.449219 2.433594 -0.449219 L 2.472656 -0.488281 C 2.472656 -0.523438 2.472656 -0.5625 2.472656 -0.5625 L 2.433594 -0.710938 C 2.433594 -1.648438 2.472656 -2.546875 2.472656 -3.484375 C 2.472656 -4.382812 2.507812 -5.316406 2.507812 -6.21875 C 2.507812 -7.152344 2.507812 -8.050781 2.507812 -8.988281 L 2.507812 -11.722656 C 2.507812 -12.660156 2.433594 -13.558594 2.433594 -14.496094 L 2.433594 -17.226562 C 2.433594 -18.164062 2.472656 -19.0625 2.472656 -20 C 2.472656 -20.898438 2.472656 -21.835938 2.472656 -22.734375 L 2.472656 -25.503906 C 2.472656 -25.542969 2.507812 -25.582031 2.472656 -25.617188 C 2.472656 -25.65625 2.433594 -25.691406 2.433594 -25.730469 C 2.433594 -25.769531 2.507812 -25.804688 2.507812 -25.804688 C 2.507812 -25.878906 2.472656 -25.953125 2.472656 -26.03125 C 2.507812 -26.105469 2.585938 -26.179688 2.660156 -26.21875 C 2.734375 -26.21875 2.773438 -26.253906 2.808594 -26.253906 L 3.035156 -26.253906 C 3.183594 -26.253906 3.371094 -26.179688 3.519531 -26.179688 C 4.195312 -26.179688 4.980469 -26.21875 5.65625 -26.179688 C 5.769531 -26.140625 5.804688 -26.066406 5.878906 -26.066406 C 6.667969 -25.992188 7.378906 -25.878906 8.164062 -25.65625 C 8.800781 -25.503906 9.402344 -25.316406 10.039062 -25.054688 C 10.113281 -25.019531 10.226562 -24.980469 10.261719 -24.90625 L 10.375 -24.792969 C 10.410156 -24.757812 10.488281 -24.757812 10.5625 -24.757812 C 10.785156 -24.679688 11.085938 -24.457031 11.3125 -24.308594 L 11.984375 -23.820312 C 12.097656 -23.746094 12.171875 -23.671875 12.285156 -23.59375 L 12.398438 -23.484375 C 12.585938 -23.332031 12.773438 -23.144531 12.957031 -22.921875 C 13.035156 -22.847656 13.035156 -22.808594 13.109375 -22.773438 C 13.183594 -22.695312 13.257812 -22.695312 13.332031 -22.695312 C 13.410156 -22.695312 13.519531 -22.734375 13.59375 -22.957031 C 13.59375 -22.996094 13.558594 -23.070312 13.558594 -23.144531 C 13.59375 -23.671875 13.59375 -24.195312 13.59375 -24.71875 C 13.59375 -25.019531 13.632812 -25.28125 13.632812 -25.582031 C 13.632812 -25.617188 13.671875 -25.65625 13.671875 -25.691406 L 13.671875 -25.730469 C 13.671875 -25.730469 13.632812 -25.730469 13.632812 -25.730469 L 13.632812 -25.84375 C 13.632812 -25.878906 13.59375 -25.953125 13.632812 -26.03125 C 13.632812 -26.105469 13.707031 -26.21875 13.78125 -26.253906 C 13.859375 -26.253906 13.894531 -26.21875 13.96875 -26.21875 C 14.605469 -26.21875 15.28125 -26.253906 15.953125 -26.253906 L 18.128906 -26.253906 C 18.203125 -26.253906 18.277344 -26.179688 18.351562 -26.140625 C 18.390625 -26.105469 18.425781 -26.105469 18.425781 -26.066406 C 18.464844 -25.992188 18.464844 -25.917969 18.464844 -25.84375 C 18.464844 -25.769531 18.539062 -25.691406 18.539062 -25.617188 C 18.539062 -24.382812 18.5 -24.382812 18.5 -23.144531 L 18.5 -20.675781 C 18.5 -19.4375 18.464844 -19.4375 18.464844 -18.203125 C 18.464844 -16.929688 18.539062 -16.929688 18.539062 -15.691406 C 18.539062 -13.445312 18.5 -11.199219 18.5 -8.953125 C 18.5 -8.015625 18.464844 -7.078125 18.464844 -6.140625 C 18.464844 -5.207031 18.539062 -4.230469 18.539062 -3.296875 C 18.539062 -2.359375 18.5 -1.421875 18.5 -0.488281 C 18.5 -0.410156 18.539062 -0.300781 18.539062 -0.261719 C 18.5 -0.113281 18.390625 0 18.238281 0.0390625 L 17.976562 0 C 17.453125 0 16.929688 -0.0390625 16.40625 -0.0390625 C 15.65625 -0.0390625 14.867188 0 14.082031 0 C 14.007812 0 13.933594 -0.0390625 13.859375 -0.0390625 C 13.746094 -0.0390625 13.632812 -0.0742188 13.59375 -0.1875 C 13.59375 -0.226562 13.671875 -0.300781 13.671875 -0.335938 C 13.632812 -0.636719 13.558594 -0.898438 13.558594 -1.199219 C 13.558594 -1.273438 13.632812 -1.347656 13.632812 -1.421875 L 13.632812 -1.871094 C 13.632812 -2.058594 13.558594 -2.246094 13.558594 -2.398438 C 13.558594 -2.472656 13.558594 -2.507812 13.558594 -2.546875 L 13.59375 -2.585938 C 13.59375 -2.585938 13.558594 -2.621094 13.558594 -2.621094 L 13.519531 -2.621094 C 13.558594 -2.695312 13.59375 -2.808594 13.59375 -2.882812 C 13.519531 -4.980469 13.484375 -7.078125 13.257812 -9.175781 C 13.257812 -9.25 13.296875 -9.363281 13.257812 -9.4375 C 13.183594 -10.148438 12.996094 -10.824219 12.882812 -11.535156 L 12.882812 -11.574219 C 12.808594 -12.058594 12.734375 -12.585938 12.621094 -13.070312 C 12.546875 -13.332031 12.433594 -13.558594 12.359375 -13.78125 C 12.359375 -13.894531 12.285156 -13.859375 12.246094 -13.933594 C 12.210938 -14.121094 12.246094 -14.269531 12.210938 -14.382812 C 11.984375 -15.019531 11.683594 -15.617188 11.386719 -16.21875 C 11.386719 -16.292969 11.386719 -16.292969 11.347656 -16.328125 C 11.273438 -16.480469 11.199219 -16.628906 11.125 -16.777344 L 10.785156 -17.339844 C 10.785156 -17.378906 10.75 -17.414062 10.710938 -17.453125 C 10.710938 -17.453125 10.675781 -17.453125 10.636719 -17.492188 L 10.5625 -17.566406 C 10.335938 -17.828125 10.148438 -18.203125 9.886719 -18.464844 C 9.851562 -18.539062 9.738281 -18.539062 9.664062 -18.613281 L 9.550781 -18.726562 C 9.402344 -18.875 9.25 -19.0625 9.027344 -19.25 C 8.839844 -19.4375 8.613281 -19.589844 8.351562 -19.773438 C 8.238281 -19.8125 8.128906 -19.886719 8.015625 -19.960938 C 7.976562 -19.960938 7.976562 -20 7.941406 -20 C 7.902344 -20.039062 7.789062 -20.039062 7.714844 -20.039062 L 7.714844 -20 C 7.601562 -20 7.453125 -20 7.414062 -19.886719 C 7.378906 -19.851562 7.453125 -19.738281 7.414062 -19.625 C 7.414062 -19.363281 7.378906 -19.101562 7.378906 -18.800781 L 7.378906 -18.652344 C 7.378906 -17.789062 7.414062 -16.929688 7.414062 -16.066406 C 7.414062 -15.242188 7.378906 -14.382812 7.378906 -13.519531 C 7.378906 -12.660156 7.414062 -11.796875 7.414062 -10.9375 C 7.414062 -10.113281 7.414062 -9.25 7.414062 -8.390625 L 7.414062 -5.804688 C 7.414062 -4.980469 7.339844 -4.121094 7.339844 -3.257812 L 7.339844 -0.375 C 7.339844 -0.300781 7.414062 -0.226562 7.378906 -0.1875 C 7.339844 -0.0742188 7.265625 0 7.152344 0 C 7.042969 0.0390625 6.890625 0.0390625 6.777344 0.0390625 Z M 6.777344 -0.0390625 "/></g></g></g><g fill="#000000" fill-opacity="1"><g transform="translate(163.666059, 32.597544)"><g><path d="M 6.777344 -0.0390625 C 6.292969 -0.0390625 5.804688 0 5.28125 0 C 4.496094 0 3.746094 0.0390625 2.957031 0.0390625 C 2.882812 0.0390625 2.773438 -0.0390625 2.695312 -0.0742188 C 2.621094 -0.0742188 2.507812 -0.0742188 2.472656 -0.1875 C 2.472656 -0.226562 2.472656 -0.261719 2.433594 -0.300781 L 2.472656 -0.335938 C 2.472656 -0.375 2.507812 -0.410156 2.507812 -0.410156 C 2.507812 -0.449219 2.433594 -0.449219 2.433594 -0.449219 L 2.472656 -0.488281 C 2.472656 -0.523438 2.472656 -0.5625 2.472656 -0.5625 L 2.433594 -0.710938 C 2.433594 -1.648438 2.472656 -2.546875 2.472656 -3.484375 C 2.472656 -4.382812 2.507812 -5.316406 2.507812 -6.21875 C 2.507812 -7.152344 2.507812 -8.050781 2.507812 -8.988281 L 2.507812 -11.722656 C 2.507812 -12.660156 2.433594 -13.558594 2.433594 -14.496094 L 2.433594 -17.226562 C 2.433594 -18.164062 2.472656 -19.0625 2.472656 -20 C 2.472656 -20.898438 2.472656 -21.835938 2.472656 -22.734375 L 2.472656 -25.503906 C 2.472656 -25.542969 2.507812 -25.582031 2.472656 -25.617188 C 2.472656 -25.65625 2.433594 -25.691406 2.433594 -25.730469 C 2.433594 -25.769531 2.507812 -25.804688 2.507812 -25.804688 C 2.507812 -25.878906 2.472656 -25.953125 2.472656 -26.03125 C 2.507812 -26.105469 2.585938 -26.179688 2.660156 -26.21875 C 2.734375 -26.21875 2.773438 -26.253906 2.808594 -26.253906 L 3.035156 -26.253906 C 3.183594 -26.253906 3.371094 -26.179688 3.519531 -26.179688 C 4.195312 -26.179688 4.980469 -26.21875 5.65625 -26.179688 C 5.769531 -26.140625 5.804688 -26.066406 5.878906 -26.066406 C 6.667969 -25.992188 7.378906 -25.878906 8.164062 -25.65625 C 8.800781 -25.503906 9.402344 -25.316406 10.039062 -25.054688 C 10.113281 -25.019531 10.226562 -24.980469 10.261719 -24.90625 L 10.375 -24.792969 C 10.410156 -24.757812 10.488281 -24.757812 10.5625 -24.757812 C 10.785156 -24.679688 11.085938 -24.457031 11.3125 -24.308594 L 11.984375 -23.820312 C 12.097656 -23.746094 12.171875 -23.671875 12.285156 -23.59375 L 12.398438 -23.484375 C 12.585938 -23.332031 12.773438 -23.144531 12.957031 -22.921875 C 13.035156 -22.847656 13.035156 -22.808594 13.109375 -22.773438 C 13.183594 -22.695312 13.257812 -22.695312 13.332031 -22.695312 C 13.410156 -22.695312 13.519531 -22.734375 13.59375 -22.957031 C 13.59375 -22.996094 13.558594 -23.070312 13.558594 -23.144531 C 13.59375 -23.671875 13.59375 -24.195312 13.59375 -24.71875 C 13.59375 -25.019531 13.632812 -25.28125 13.632812 -25.582031 C 13.632812 -25.617188 13.671875 -25.65625 13.671875 -25.691406 L 13.671875 -25.730469 C 13.671875 -25.730469 13.632812 -25.730469 13.632812 -25.730469 L 13.632812 -25.84375 C 13.632812 -25.878906 13.59375 -25.953125 13.632812 -26.03125 C 13.632812 -26.105469 13.707031 -26.21875 13.78125 -26.253906 C 13.859375 -26.253906 13.894531 -26.21875 13.96875 -26.21875 C 14.605469 -26.21875 15.28125 -26.253906 15.953125 -26.253906 L 18.128906 -26.253906 C 18.203125 -26.253906 18.277344 -26.179688 18.351562 -26.140625 C 18.390625 -26.105469 18.425781 -26.105469 18.425781 -26.066406 C 18.464844 -25.992188 18.464844 -25.917969 18.464844 -25.84375 C 18.464844 -25.769531 18.539062 -25.691406 18.539062 -25.617188 C 18.539062 -24.382812 18.5 -24.382812 18.5 -23.144531 L 18.5 -20.675781 C 18.5 -19.4375 18.464844 -19.4375 18.464844 -18.203125 C 18.464844 -16.929688 18.539062 -16.929688 18.539062 -15.691406 C 18.539062 -13.445312 18.5 -11.199219 18.5 -8.953125 C 18.5 -8.015625 18.464844 -7.078125 18.464844 -6.140625 C 18.464844 -5.207031 18.539062 -4.230469 18.539062 -3.296875 C 18.539062 -2.359375 18.5 -1.421875 18.5 -0.488281 C 18.5 -0.410156 18.539062 -0.300781 18.539062 -0.261719 C 18.5 -0.113281 18.390625 0 18.238281 0.0390625 L 17.976562 0 C 17.453125 0 16.929688 -0.0390625 16.40625 -0.0390625 C 15.65625 -0.0390625 14.867188 0 14.082031 0 C 14.007812 0 13.933594 -0.0390625 13.859375 -0.0390625 C 13.746094 -0.0390625 13.632812 -0.0742188 13.59375 -0.1875 C 13.59375 -0.226562 13.671875 -0.300781 13.671875 -0.335938 C 13.632812 -0.636719 13.558594 -0.898438 13.558594 -1.199219 C 13.558594 -1.273438 13.632812 -1.347656 13.632812 -1.421875 L 13.632812 -1.871094 C 13.632812 -2.058594 13.558594 -2.246094 13.558594 -2.398438 C 13.558594 -2.472656 13.558594 -2.507812 13.558594 -2.546875 L 13.59375 -2.585938 C 13.59375 -2.585938 13.558594 -2.621094 13.558594 -2.621094 L 13.519531 -2.621094 C 13.558594 -2.695312 13.59375 -2.808594 13.59375 -2.882812 C 13.519531 -4.980469 13.484375 -7.078125 13.257812 -9.175781 C 13.257812 -9.25 13.296875 -9.363281 13.257812 -9.4375 C 13.183594 -10.148438 12.996094 -10.824219 12.882812 -11.535156 L 12.882812 -11.574219 C 12.808594 -12.058594 12.734375 -12.585938 12.621094 -13.070312 C 12.546875 -13.332031 12.433594 -13.558594 12.359375 -13.78125 C 12.359375 -13.894531 12.285156 -13.859375 12.246094 -13.933594 C 12.210938 -14.121094 12.246094 -14.269531 12.210938 -14.382812 C 11.984375 -15.019531 11.683594 -15.617188 11.386719 -16.21875 C 11.386719 -16.292969 11.386719 -16.292969 11.347656 -16.328125 C 11.273438 -16.480469 11.199219 -16.628906 11.125 -16.777344 L 10.785156 -17.339844 C 10.785156 -17.378906 10.75 -17.414062 10.710938 -17.453125 C 10.710938 -17.453125 10.675781 -17.453125 10.636719 -17.492188 L 10.5625 -17.566406 C 10.335938 -17.828125 10.148438 -18.203125 9.886719 -18.464844 C 9.851562 -18.539062 9.738281 -18.539062 9.664062 -18.613281 L 9.550781 -18.726562 C 9.402344 -18.875 9.25 -19.0625 9.027344 -19.25 C 8.839844 -19.4375 8.613281 -19.589844 8.351562 -19.773438 C 8.238281 -19.8125 8.128906 -19.886719 8.015625 -19.960938 C 7.976562 -19.960938 7.976562 -20 7.941406 -20 C 7.902344 -20.039062 7.789062 -20.039062 7.714844 -20.039062 L 7.714844 -20 C 7.601562 -20 7.453125 -20 7.414062 -19.886719 C 7.378906 -19.851562 7.453125 -19.738281 7.414062 -19.625 C 7.414062 -19.363281 7.378906 -19.101562 7.378906 -18.800781 L 7.378906 -18.652344 C 7.378906 -17.789062 7.414062 -16.929688 7.414062 -16.066406 C 7.414062 -15.242188 7.378906 -14.382812 7.378906 -13.519531 C 7.378906 -12.660156 7.414062 -11.796875 7.414062 -10.9375 C 7.414062 -10.113281 7.414062 -9.25 7.414062 -8.390625 L 7.414062 -5.804688 C 7.414062 -4.980469 7.339844 -4.121094 7.339844 -3.257812 L 7.339844 -0.375 C 7.339844 -0.300781 7.414062 -0.226562 7.378906 -0.1875 C 7.339844 -0.0742188 7.265625 0 7.152344 0 C 7.042969 0.0390625 6.890625 0.0390625 6.777344 0.0390625 Z M 6.777344 -0.0390625 "/></g></g></g></svg>