<svg xmlns="http://www.w3.org/2000/svg" xmlns:xlink="http://www.w3.org/1999/xlink" width="150" zoomAndPan="magnify" viewBox="0 0 112.5 37.5" height="50" preserveAspectRatio="xMidYMid meet" version="1.0"><defs><g/></defs><g fill="#ffffff" fill-opacity="1"><g transform="translate(2.118927, 34.765211)"><g><path d="M 3.15625 -16.480469 C 3.15625 -17.515625 3.0625 -18.597656 3.0625 -19.636719 L 3.0625 -22.742188 C 3.0625 -23.824219 3.15625 -24.863281 3.15625 -25.898438 C 3.15625 -26.933594 3.15625 -27.96875 3.15625 -29.003906 L 3.15625 -32.160156 C 3.15625 -32.300781 3.109375 -32.394531 3.109375 -32.535156 C 3.15625 -32.726562 3.296875 -32.820312 3.484375 -32.867188 L 3.8125 -32.914062 C 4.332031 -32.914062 4.851562 -32.867188 5.320312 -32.867188 C 6.355469 -32.867188 7.34375 -32.960938 8.382812 -32.960938 C 8.476562 -32.960938 8.570312 -32.914062 8.664062 -32.867188 C 8.945312 -32.820312 9.039062 -32.679688 9.039062 -32.441406 C 9.085938 -32.253906 9.132812 -32.019531 9.132812 -31.832031 L 9.132812 -28.015625 C 9.132812 -26.746094 9.085938 -25.472656 9.085938 -24.203125 C 9.085938 -22.976562 9.132812 -21.707031 9.132812 -20.433594 C 9.132812 -20.246094 9.085938 -20.105469 9.132812 -19.917969 C 9.230469 -19.683594 9.417969 -19.636719 9.652344 -19.585938 C 9.792969 -19.539062 9.933594 -19.492188 10.078125 -19.492188 C 10.734375 -19.492188 11.394531 -19.398438 12.101562 -19.398438 C 12.476562 -19.445312 12.902344 -19.492188 13.277344 -19.636719 C 13.515625 -19.730469 13.75 -19.871094 13.9375 -20.011719 C 14.171875 -20.152344 14.410156 -20.386719 14.597656 -20.578125 C 14.785156 -20.8125 14.878906 -21.046875 15.019531 -21.28125 C 15.113281 -21.519531 15.160156 -21.800781 15.257812 -22.082031 C 15.257812 -22.226562 15.351562 -22.414062 15.351562 -22.601562 C 15.398438 -22.789062 15.304688 -22.976562 15.304688 -23.167969 L 15.304688 -26.179688 C 15.304688 -27.167969 15.398438 -28.15625 15.398438 -29.195312 C 15.398438 -30.183594 15.351562 -31.21875 15.351562 -32.207031 C 15.351562 -32.300781 15.398438 -32.441406 15.445312 -32.535156 C 15.445312 -32.726562 15.539062 -32.773438 15.679688 -32.820312 C 15.820312 -32.867188 15.914062 -32.867188 16.007812 -32.867188 C 17.5625 -32.914062 19.117188 -32.867188 20.625 -32.867188 C 20.765625 -32.867188 20.859375 -32.914062 21 -32.867188 C 21.09375 -32.820312 21.1875 -32.726562 21.234375 -32.628906 C 21.234375 -32.535156 21.28125 -32.488281 21.28125 -32.394531 C 21.328125 -31.171875 21.234375 -29.898438 21.234375 -28.675781 C 21.234375 -27.78125 21.328125 -26.886719 21.328125 -25.992188 C 21.328125 -25.097656 21.28125 -24.203125 21.28125 -23.355469 C 21.28125 -23.214844 21.328125 -23.070312 21.328125 -22.929688 C 21.28125 -22.742188 21.28125 -22.601562 21.28125 -22.460938 C 21.28125 -22.226562 21.234375 -21.988281 21.234375 -21.800781 C 21.1875 -21.472656 21.1875 -21.1875 21.140625 -20.90625 C 21.09375 -20.671875 20.953125 -20.484375 20.90625 -20.246094 C 20.8125 -19.964844 20.765625 -19.636719 20.671875 -19.351562 L 20.53125 -18.976562 C 20.484375 -18.789062 20.386719 -18.644531 20.292969 -18.503906 L 19.871094 -17.84375 C 19.683594 -17.609375 19.585938 -17.328125 19.445312 -17.09375 L 19.023438 -16.714844 C 18.929688 -16.574219 18.976562 -16.386719 19.023438 -16.199219 C 19.023438 -16.054688 19.070312 -15.914062 19.117188 -15.820312 L 19.539062 -15.398438 C 19.683594 -15.207031 19.777344 -15.019531 19.917969 -14.832031 L 20.484375 -13.984375 C 20.578125 -13.796875 20.71875 -13.609375 20.8125 -13.371094 C 20.859375 -13.324219 20.859375 -13.183594 20.859375 -13.089844 C 21.046875 -12.761719 21.140625 -12.429688 21.234375 -12.101562 C 21.328125 -11.820312 21.378906 -11.535156 21.425781 -11.253906 C 21.425781 -11.066406 21.472656 -10.828125 21.472656 -10.640625 C 21.519531 -10.03125 21.519531 -9.417969 21.519531 -8.804688 C 21.519531 -8.238281 21.566406 -7.628906 21.566406 -7.015625 C 21.566406 -6.402344 21.566406 -5.792969 21.566406 -5.179688 L 21.566406 -0.753906 C 21.566406 -0.660156 21.472656 -0.566406 21.472656 -0.472656 C 21.425781 -0.28125 21.378906 -0.140625 21.234375 -0.09375 C 21.140625 -0.046875 21 -0.140625 20.953125 -0.140625 C 20.199219 -0.09375 19.492188 -0.09375 18.789062 -0.09375 C 18.035156 -0.09375 17.328125 0 16.621094 0 C 16.433594 0 16.246094 -0.140625 16.101562 -0.140625 C 16.007812 -0.140625 15.960938 -0.140625 15.867188 -0.1875 C 15.773438 -0.1875 15.679688 -0.234375 15.632812 -0.328125 C 15.585938 -0.375 15.679688 -0.519531 15.679688 -0.566406 C 15.632812 -1.269531 15.585938 -1.976562 15.585938 -2.683594 L 15.585938 -6.449219 C 15.585938 -7.722656 15.632812 -8.992188 15.632812 -10.21875 C 15.632812 -10.6875 15.492188 -11.160156 15.304688 -11.582031 C 15.207031 -11.867188 14.972656 -12.054688 14.832031 -12.242188 C 14.691406 -12.429688 14.597656 -12.617188 14.457031 -12.714844 C 14.359375 -12.761719 14.3125 -12.855469 14.21875 -12.902344 C 13.890625 -13.136719 13.5625 -13.324219 13.183594 -13.417969 C 12.996094 -13.464844 12.808594 -13.515625 12.570312 -13.515625 L 12.382812 -13.515625 C 12.289062 -13.515625 12.195312 -13.464844 12.101562 -13.464844 C 12.101562 -13.464844 12.054688 -13.515625 12.007812 -13.515625 C 11.914062 -13.515625 11.867188 -13.464844 11.773438 -13.464844 C 11.300781 -13.464844 10.828125 -13.515625 10.359375 -13.515625 C 10.265625 -13.515625 10.21875 -13.515625 10.171875 -13.515625 L 10.125 -13.464844 C 9.980469 -13.464844 9.839844 -13.515625 9.699219 -13.464844 C 9.558594 -13.464844 9.417969 -13.371094 9.324219 -13.277344 C 9.230469 -13.183594 9.183594 -13.089844 9.132812 -12.949219 L 9.132812 -12.476562 C 9.132812 -11.207031 9.085938 -9.933594 9.085938 -8.710938 C 9.085938 -7.441406 9.132812 -6.167969 9.132812 -4.898438 C 9.132812 -3.625 9.085938 -2.355469 9.085938 -1.082031 C 9.085938 -0.894531 9.132812 -0.707031 9.132812 -0.519531 C 9.085938 -0.375 8.992188 -0.28125 8.851562 -0.1875 L 8.804688 -0.140625 C 8.710938 -0.140625 8.617188 -0.09375 8.523438 -0.09375 C 7.0625 -0.046875 5.648438 -0.140625 4.238281 -0.140625 C 4.050781 -0.140625 3.859375 -0.09375 3.671875 -0.140625 L 3.484375 -0.140625 C 3.296875 -0.1875 3.203125 -0.28125 3.15625 -0.472656 C 3.15625 -0.566406 3.109375 -0.660156 3.109375 -0.753906 L 3.109375 -3.90625 C 3.109375 -4.945312 3.15625 -6.027344 3.15625 -7.0625 C 3.15625 -8.097656 3.109375 -9.132812 3.109375 -10.21875 L 3.109375 -13.371094 C 3.109375 -14.410156 3.15625 -15.445312 3.15625 -16.480469 Z M 3.15625 -16.480469 "/></g></g></g><g fill="#ffffff" fill-opacity="1"><g transform="translate(26.032482, 34.765211)"><g><path d="M 1.175781 -17.09375 C 1.175781 -17.421875 1.222656 -17.75 1.320312 -18.082031 C 1.082031 -18.175781 1.648438 -20.246094 1.742188 -20.578125 C 2.070312 -22.082031 2.683594 -23.542969 3.390625 -24.863281 C 3.71875 -25.378906 4.050781 -25.945312 4.425781 -26.414062 C 5.226562 -27.5 6.214844 -28.582031 7.25 -29.429688 C 7.390625 -29.570312 7.535156 -29.664062 7.675781 -29.757812 C 7.722656 -29.804688 7.816406 -29.851562 7.863281 -29.945312 L 9.324219 -30.9375 C 9.417969 -30.984375 9.605469 -30.984375 9.699219 -31.078125 C 9.839844 -31.125 9.980469 -31.21875 10.125 -31.265625 C 10.171875 -31.3125 10.171875 -31.40625 10.21875 -31.40625 C 10.21875 -31.453125 10.265625 -31.40625 10.3125 -31.40625 C 10.40625 -31.5 10.546875 -31.59375 10.6875 -31.640625 C 10.78125 -31.734375 10.925781 -31.734375 11.019531 -31.832031 C 11.113281 -31.832031 11.160156 -31.925781 11.207031 -31.925781 C 11.441406 -32.019531 11.675781 -32.066406 11.867188 -32.160156 C 12.054688 -32.207031 12.289062 -32.253906 12.476562 -32.347656 C 12.570312 -32.347656 12.617188 -32.488281 12.714844 -32.488281 C 12.761719 -32.535156 12.855469 -32.535156 12.949219 -32.535156 C 12.996094 -32.582031 13.089844 -32.535156 13.136719 -32.535156 C 13.230469 -32.582031 13.324219 -32.582031 13.417969 -32.628906 C 13.515625 -32.628906 13.609375 -32.726562 13.703125 -32.773438 C 13.796875 -32.820312 13.890625 -32.820312 13.984375 -32.820312 L 14.925781 -33.054688 C 15.113281 -33.054688 15.351562 -33.054688 15.585938 -33.101562 C 15.726562 -33.101562 15.867188 -33.195312 16.007812 -33.195312 C 16.246094 -33.242188 16.433594 -33.195312 16.667969 -33.242188 C 17.1875 -33.289062 17.703125 -33.148438 17.988281 -32.679688 C 18.082031 -32.535156 18.082031 -32.347656 18.128906 -32.207031 C 18.222656 -31.40625 18.269531 -30.605469 18.269531 -29.804688 C 18.269531 -29.335938 18.269531 -28.863281 18.222656 -28.441406 C 18.175781 -27.546875 17.988281 -26.699219 16.949219 -26.554688 L 16.761719 -26.554688 C 16.667969 -26.507812 16.574219 -26.554688 16.480469 -26.554688 L 15.820312 -26.414062 C 13.089844 -25.804688 10.546875 -23.96875 9.183594 -21.519531 C 9.085938 -21.328125 9.085938 -21.140625 8.992188 -20.953125 L 8.804688 -20.625 C 8.804688 -20.53125 8.898438 -20.484375 8.898438 -20.433594 C 8.898438 -20.339844 8.851562 -20.246094 8.945312 -20.152344 C 8.992188 -20.058594 9.085938 -19.964844 9.183594 -19.917969 C 9.371094 -19.871094 9.511719 -19.917969 9.699219 -19.917969 C 9.886719 -19.917969 10.125 -19.871094 10.3125 -19.871094 C 10.359375 -19.871094 10.359375 -19.871094 10.359375 -19.871094 L 10.5 -19.871094 C 10.546875 -19.917969 10.59375 -19.824219 10.640625 -19.824219 C 11.535156 -19.824219 12.429688 -19.824219 13.324219 -19.871094 C 13.796875 -19.871094 14.21875 -19.871094 14.644531 -19.917969 C 15.019531 -19.917969 15.398438 -19.824219 15.773438 -19.824219 L 15.867188 -19.824219 C 16.199219 -19.824219 16.667969 -19.824219 16.949219 -19.730469 C 17 -19.683594 17 -19.683594 17.046875 -19.683594 C 17.328125 -19.492188 17.515625 -19.210938 17.5625 -18.882812 C 17.609375 -18.691406 17.609375 -18.457031 17.609375 -18.269531 C 17.609375 -17.941406 17.609375 -17.5625 17.609375 -17.234375 L 17.609375 -15.492188 C 17.609375 -15.445312 17.5625 -15.398438 17.5625 -15.398438 C 17.5625 -15.351562 17.65625 -15.304688 17.65625 -15.207031 C 17.65625 -14.691406 17.65625 -13.84375 17.1875 -13.464844 C 16.808594 -13.183594 16.433594 -13.136719 16.007812 -13.136719 C 15.726562 -13.136719 15.492188 -13.136719 15.207031 -13.183594 C 14.359375 -13.230469 13.417969 -13.136719 12.570312 -13.136719 C 11.628906 -13.136719 10.734375 -13.183594 9.839844 -13.183594 C 9.652344 -13.183594 9.417969 -13.183594 9.230469 -13.089844 C 9.085938 -13.042969 8.992188 -12.949219 8.945312 -12.855469 C 8.851562 -12.761719 8.804688 -12.667969 8.804688 -12.570312 C 8.804688 -12.476562 8.757812 -12.382812 8.804688 -12.289062 C 8.804688 -12.148438 8.898438 -12.054688 8.992188 -11.914062 C 8.992188 -11.867188 8.992188 -11.820312 8.992188 -11.773438 L 9.324219 -11.207031 C 9.464844 -10.925781 9.746094 -10.6875 9.933594 -10.40625 C 10.265625 -9.933594 10.640625 -9.605469 11.066406 -9.183594 C 11.253906 -9.039062 11.347656 -8.804688 11.535156 -8.617188 C 12.007812 -8.238281 12.714844 -7.910156 13.277344 -7.582031 C 14.078125 -7.15625 14.972656 -6.78125 15.867188 -6.59375 C 15.960938 -6.546875 16.101562 -6.546875 16.246094 -6.546875 C 16.433594 -6.496094 16.621094 -6.496094 16.761719 -6.449219 C 17 -6.402344 17.1875 -6.355469 17.421875 -6.261719 C 17.5625 -6.214844 17.65625 -6.121094 17.796875 -5.980469 C 17.894531 -5.886719 17.988281 -5.839844 18.035156 -5.746094 C 18.175781 -5.507812 18.175781 -5.367188 18.175781 -5.226562 C 18.175781 -5.132812 18.175781 -5.039062 18.175781 -4.945312 L 18.175781 -4.753906 C 18.222656 -4.378906 18.222656 -4.003906 18.222656 -3.625 C 18.222656 -3.203125 18.222656 -2.824219 18.175781 -2.402344 C 18.175781 -2.023438 18.175781 -1.648438 18.128906 -1.269531 C 18.128906 -0.988281 18.175781 -0.566406 18.082031 -0.328125 C 18.082031 -0.234375 17.988281 -0.140625 17.941406 -0.046875 L 17.796875 0.046875 C 17.75 0.09375 17.609375 0.140625 17.5625 0.140625 C 17.28125 0.28125 17.046875 0.328125 16.808594 0.328125 C 16.621094 0.328125 16.433594 0.328125 16.292969 0.234375 C 16.101562 0.1875 15.914062 0.234375 15.726562 0.234375 C 15.445312 0.1875 15.160156 0.140625 14.925781 0.046875 C 14.878906 0.046875 14.785156 0.09375 14.738281 0.046875 C 14.550781 0.046875 14.410156 -0.09375 14.21875 -0.140625 C 14.125 -0.1875 13.984375 -0.09375 13.84375 -0.140625 C 13.609375 -0.1875 13.324219 -0.28125 13.089844 -0.375 C 12.617188 -0.566406 12.148438 -0.800781 11.675781 -0.941406 C 11.253906 -1.082031 10.828125 -1.175781 10.453125 -1.367188 C 10.359375 -1.414062 10.265625 -1.507812 10.359375 -1.601562 C 10.078125 -1.367188 8.664062 -2.542969 8.476562 -2.683594 C 8.289062 -2.777344 8.097656 -2.824219 7.910156 -2.964844 C 7.769531 -3.109375 7.582031 -3.25 7.390625 -3.390625 C 7.015625 -3.671875 6.6875 -4.097656 6.308594 -4.425781 C 5.648438 -4.992188 4.992188 -5.792969 4.425781 -6.496094 L 4.050781 -7.015625 C 3.859375 -7.296875 3.765625 -7.628906 3.578125 -7.957031 C 3.484375 -8.097656 3.390625 -8.191406 3.296875 -8.335938 L 3.25 -8.523438 C 2.964844 -8.992188 2.636719 -9.511719 2.449219 -9.980469 C 2.261719 -10.59375 1.976562 -11.160156 1.835938 -11.722656 L 1.695312 -12.195312 C 1.648438 -12.335938 1.695312 -12.476562 1.648438 -12.617188 C 1.601562 -12.808594 1.601562 -12.949219 1.601562 -13.136719 C 1.554688 -13.324219 1.414062 -13.464844 1.367188 -13.65625 C 1.320312 -13.9375 1.320312 -14.21875 1.269531 -14.503906 C 1.222656 -14.878906 1.222656 -15.207031 1.222656 -15.585938 C 1.175781 -16.054688 1.175781 -16.574219 1.175781 -17.09375 Z M 1.175781 -17.09375 "/></g></g></g><g fill="#ffffff" fill-opacity="1"><g transform="translate(46.650855, 34.765211)"><g><path d="M 21.847656 -16.480469 C 21.847656 -15.445312 21.847656 -14.359375 21.847656 -13.324219 L 21.847656 -10.171875 C 21.847656 -9.132812 21.894531 -8.050781 21.894531 -7.015625 L 21.894531 -3.859375 C 21.894531 -2.777344 21.941406 -1.742188 21.941406 -0.707031 C 21.941406 -0.566406 21.847656 -0.472656 21.847656 -0.375 C 21.847656 -0.234375 21.707031 -0.09375 21.566406 -0.09375 C 21.472656 -0.09375 21.378906 -0.046875 21.28125 -0.09375 L 21.140625 0 C 20.011719 0 18.882812 -0.09375 17.703125 -0.09375 C 17.5625 -0.09375 17.421875 -0.09375 17.328125 -0.046875 L 17.046875 -0.046875 C 16.386719 -0.046875 17.09375 0.046875 15.679688 -0.09375 C 15.492188 -0.09375 15.304688 -0.09375 15.160156 -0.140625 C 14.878906 -0.140625 14.644531 -0.140625 14.359375 -0.1875 C 14.21875 -0.1875 14.03125 -0.28125 13.890625 -0.328125 C 13.703125 -0.375 13.515625 -0.375 13.324219 -0.421875 L 12.714844 -0.566406 C 12.429688 -0.613281 12.195312 -0.707031 11.914062 -0.800781 C 11.675781 -0.894531 11.441406 -0.941406 11.253906 -1.035156 C 11.066406 -1.082031 10.925781 -1.222656 10.78125 -1.269531 C 10.5 -1.414062 10.21875 -1.460938 9.933594 -1.601562 C 9.558594 -1.789062 9.183594 -2.023438 8.804688 -2.261719 C 8.523438 -2.449219 8.238281 -2.636719 7.957031 -2.871094 C 7.722656 -3.011719 7.535156 -3.25 7.34375 -3.390625 C 7.15625 -3.578125 6.921875 -3.671875 6.734375 -3.859375 C 6.6875 -3.90625 6.6875 -4.003906 6.640625 -4.003906 L 6.496094 -4.144531 C 6.402344 -4.238281 6.214844 -4.332031 6.121094 -4.472656 C 5.980469 -4.613281 5.839844 -4.707031 5.746094 -4.898438 C 5.554688 -5.085938 5.414062 -5.367188 5.273438 -5.601562 C 5.132812 -5.839844 4.898438 -5.980469 4.753906 -6.261719 C 4.707031 -6.355469 4.566406 -6.449219 4.519531 -6.59375 C 4.378906 -6.828125 4.332031 -7.0625 4.238281 -7.296875 C 4.144531 -7.441406 3.957031 -7.582031 3.90625 -7.722656 C 3.8125 -7.910156 3.765625 -8.144531 3.71875 -8.382812 C 3.578125 -8.617188 3.484375 -8.898438 3.390625 -9.132812 C 3.203125 -9.652344 3.011719 -10.125 2.871094 -10.640625 C 2.824219 -10.925781 2.777344 -11.253906 2.730469 -11.582031 L 2.589844 -12.242188 C 2.402344 -13.796875 2.402344 -15.351562 2.402344 -16.949219 C 2.402344 -17.941406 2.402344 -18.976562 2.402344 -20.011719 L 2.402344 -23.070312 C 2.402344 -24.109375 2.449219 -25.144531 2.449219 -26.179688 C 2.449219 -27.214844 2.355469 -28.203125 2.355469 -29.242188 C 2.355469 -30.277344 2.402344 -31.3125 2.402344 -32.347656 C 2.402344 -32.441406 2.449219 -32.535156 2.496094 -32.628906 C 2.542969 -32.820312 2.589844 -32.914062 2.777344 -32.914062 C 2.824219 -32.914062 2.824219 -32.867188 2.871094 -32.867188 C 3.71875 -32.867188 4.566406 -32.914062 5.414062 -32.914062 C 6.308594 -32.914062 7.15625 -32.960938 8.003906 -32.960938 C 8.050781 -32.960938 8.144531 -32.820312 8.191406 -32.820312 C 8.335938 -32.773438 8.335938 -32.773438 8.382812 -32.628906 L 8.382812 -32.347656 C 8.382812 -31.21875 8.476562 -30.039062 8.476562 -28.863281 C 8.476562 -27.734375 8.429688 -26.554688 8.429688 -25.378906 C 8.429688 -24.25 8.523438 -23.070312 8.523438 -21.894531 C 8.523438 -20.765625 8.476562 -19.585938 8.476562 -18.410156 L 8.476562 -14.925781 C 8.476562 -14.3125 8.523438 -13.75 8.617188 -13.136719 C 8.664062 -12.808594 8.617188 -12.476562 8.710938 -12.148438 C 8.757812 -11.820312 8.851562 -11.441406 8.992188 -11.113281 C 9.039062 -10.875 9.230469 -10.734375 9.371094 -10.5 C 9.417969 -10.3125 9.558594 -10.125 9.652344 -9.933594 C 9.746094 -9.746094 9.839844 -9.558594 9.980469 -9.371094 C 10.078125 -9.230469 10.171875 -9.039062 10.265625 -8.898438 L 10.5 -8.664062 C 10.546875 -8.617188 10.640625 -8.570312 10.640625 -8.523438 C 10.6875 -8.523438 10.640625 -8.476562 10.640625 -8.429688 C 10.734375 -8.382812 10.828125 -8.335938 10.875 -8.289062 L 11.160156 -8.003906 C 11.394531 -7.816406 11.582031 -7.582031 11.867188 -7.390625 C 12.195312 -7.203125 12.570312 -7.0625 12.902344 -6.875 C 13.183594 -6.78125 13.515625 -6.734375 13.796875 -6.640625 C 13.984375 -6.546875 14.125 -6.402344 14.3125 -6.355469 C 14.503906 -6.308594 14.738281 -6.308594 14.925781 -6.308594 C 15.019531 -6.261719 15.160156 -6.261719 15.304688 -6.261719 C 15.445312 -6.261719 15.539062 -6.261719 15.632812 -6.308594 C 15.726562 -6.355469 15.726562 -6.449219 15.726562 -6.496094 C 15.773438 -6.546875 15.820312 -6.59375 15.820312 -6.640625 C 15.867188 -6.734375 15.820312 -6.828125 15.820312 -6.875 L 15.820312 -6.921875 C 15.773438 -7.015625 15.820312 -7.15625 15.820312 -7.25 C 15.820312 -8.476562 15.914062 -9.652344 15.914062 -10.828125 C 15.914062 -12.054688 15.773438 -13.230469 15.773438 -14.410156 C 15.773438 -15.632812 15.867188 -16.808594 15.867188 -17.988281 C 15.867188 -19.210938 15.773438 -20.386719 15.773438 -21.566406 C 15.773438 -22.789062 15.867188 -23.96875 15.867188 -25.144531 C 15.867188 -26.367188 15.914062 -27.546875 15.914062 -28.722656 C 15.914062 -29.945312 15.820312 -31.125 15.820312 -32.300781 L 15.820312 -32.679688 C 15.867188 -32.820312 16.007812 -32.914062 16.199219 -32.914062 L 16.292969 -32.914062 C 16.574219 -32.914062 20.765625 -32.960938 21.472656 -32.960938 L 21.707031 -32.960938 C 21.753906 -32.914062 21.800781 -32.773438 21.800781 -32.679688 C 21.847656 -32.628906 21.800781 -32.535156 21.847656 -32.441406 C 21.847656 -32.394531 21.894531 -32.347656 21.894531 -32.300781 C 21.894531 -31.21875 21.941406 -30.183594 21.941406 -29.144531 C 21.941406 -28.0625 21.894531 -27.027344 21.894531 -25.945312 L 21.894531 -22.789062 C 21.894531 -21.753906 21.941406 -20.71875 21.941406 -19.636719 C 21.941406 -18.597656 21.847656 -17.5625 21.847656 -16.480469 Z M 21.847656 -16.480469 "/></g></g></g><g fill="#ffffff" fill-opacity="1"><g transform="translate(71.647116, 34.765211)"><g><path d="M 3.109375 -16.480469 C 3.109375 -17.703125 3.0625 -18.976562 3.0625 -20.199219 L 3.0625 -23.917969 C 3.0625 -25.191406 3.109375 -26.414062 3.109375 -27.6875 L 3.109375 -31.40625 C 3.109375 -31.59375 3.0625 -31.832031 3.0625 -32.019531 L 3.0625 -32.160156 C 3.109375 -32.347656 3.203125 -32.535156 3.34375 -32.679688 C 3.53125 -32.773438 3.71875 -32.820312 3.859375 -32.867188 C 4.003906 -32.914062 4.191406 -32.960938 4.378906 -32.960938 C 5.507812 -32.960938 6.640625 -32.867188 7.769531 -32.867188 C 8.003906 -32.867188 8.238281 -32.867188 8.523438 -32.820312 C 8.898438 -32.726562 9.132812 -32.535156 9.277344 -32.160156 L 9.277344 -31.6875 C 9.277344 -30.558594 9.324219 -29.429688 9.324219 -28.347656 C 9.324219 -27.214844 9.183594 -26.085938 9.183594 -24.957031 L 9.183594 -21.613281 C 9.277344 -20.484375 9.277344 -19.398438 9.277344 -18.269531 C 9.277344 -17.140625 9.324219 -16.054688 9.324219 -14.925781 C 9.324219 -13.796875 9.324219 -12.667969 9.324219 -11.582031 L 9.324219 -8.191406 C 9.324219 -7.109375 9.277344 -5.980469 9.277344 -4.851562 C 9.277344 -3.71875 9.324219 -2.636719 9.324219 -1.507812 C 9.324219 -1.269531 9.277344 -1.035156 9.183594 -0.800781 C 9.132812 -0.613281 9.085938 -0.421875 8.992188 -0.28125 C 8.851562 -0.140625 8.664062 -0.140625 8.523438 -0.09375 C 8.289062 -0.09375 8.144531 0 7.957031 0 C 6.875 0 5.699219 -0.046875 4.613281 -0.046875 C 4.378906 -0.046875 4.097656 -0.046875 3.859375 -0.09375 C 3.4375 -0.1875 3.296875 -0.421875 3.203125 -0.800781 C 3.15625 -0.941406 3.15625 -1.082031 3.15625 -1.269531 C 3.15625 -2.542969 3.0625 -3.8125 3.0625 -5.085938 L 3.0625 -8.851562 C 3.0625 -10.125 3.109375 -11.394531 3.109375 -12.667969 Z M 3.109375 -16.480469 "/></g></g></g><g fill="#ffffff" fill-opacity="1"><g transform="translate(84.027552, 34.765211)"><g><path d="M 8.523438 -0.046875 C 7.910156 -0.046875 7.296875 0 6.640625 0 C 5.648438 0 4.707031 0.046875 3.71875 0.046875 C 3.625 0.046875 3.484375 -0.046875 3.390625 -0.09375 C 3.296875 -0.09375 3.15625 -0.09375 3.109375 -0.234375 C 3.109375 -0.28125 3.109375 -0.328125 3.0625 -0.375 L 3.109375 -0.421875 C 3.109375 -0.472656 3.15625 -0.519531 3.15625 -0.519531 C 3.15625 -0.566406 3.0625 -0.566406 3.0625 -0.566406 L 3.109375 -0.613281 C 3.109375 -0.660156 3.109375 -0.707031 3.109375 -0.707031 L 3.0625 -0.894531 C 3.0625 -2.070312 3.109375 -3.203125 3.109375 -4.378906 C 3.109375 -5.507812 3.15625 -6.6875 3.15625 -7.816406 C 3.15625 -8.992188 3.15625 -10.125 3.15625 -11.300781 L 3.15625 -14.738281 C 3.15625 -15.914062 3.0625 -17.046875 3.0625 -18.222656 L 3.0625 -21.660156 C 3.0625 -22.835938 3.109375 -23.96875 3.109375 -25.144531 C 3.109375 -26.273438 3.109375 -27.453125 3.109375 -28.582031 L 3.109375 -32.066406 C 3.109375 -32.113281 3.15625 -32.160156 3.109375 -32.207031 C 3.109375 -32.253906 3.0625 -32.300781 3.0625 -32.347656 C 3.0625 -32.394531 3.15625 -32.441406 3.15625 -32.441406 C 3.15625 -32.535156 3.109375 -32.628906 3.109375 -32.726562 C 3.15625 -32.820312 3.25 -32.914062 3.34375 -32.960938 C 3.4375 -32.960938 3.484375 -33.007812 3.53125 -33.007812 L 3.8125 -33.007812 C 4.003906 -33.007812 4.238281 -32.914062 4.425781 -32.914062 C 5.273438 -32.914062 6.261719 -32.960938 7.109375 -32.914062 C 7.25 -32.867188 7.296875 -32.773438 7.390625 -32.773438 C 8.382812 -32.679688 9.277344 -32.535156 10.265625 -32.253906 C 11.066406 -32.066406 11.820312 -31.832031 12.617188 -31.5 C 12.714844 -31.453125 12.855469 -31.40625 12.902344 -31.3125 L 13.042969 -31.171875 C 13.089844 -31.125 13.183594 -31.125 13.277344 -31.125 C 13.5625 -31.03125 13.9375 -30.746094 14.21875 -30.558594 L 15.066406 -29.945312 C 15.207031 -29.851562 15.304688 -29.757812 15.445312 -29.664062 L 15.585938 -29.523438 C 15.820312 -29.335938 16.054688 -29.097656 16.292969 -28.816406 C 16.386719 -28.722656 16.386719 -28.675781 16.480469 -28.628906 C 16.574219 -28.535156 16.667969 -28.535156 16.761719 -28.535156 C 16.855469 -28.535156 17 -28.582031 17.09375 -28.863281 C 17.09375 -28.910156 17.046875 -29.003906 17.046875 -29.097656 C 17.09375 -29.757812 17.09375 -30.417969 17.09375 -31.078125 C 17.09375 -31.453125 17.140625 -31.78125 17.140625 -32.160156 C 17.140625 -32.207031 17.1875 -32.253906 17.1875 -32.300781 L 17.1875 -32.347656 C 17.1875 -32.347656 17.140625 -32.347656 17.140625 -32.347656 L 17.140625 -32.488281 C 17.140625 -32.535156 17.09375 -32.628906 17.140625 -32.726562 C 17.140625 -32.820312 17.234375 -32.960938 17.328125 -33.007812 C 17.421875 -33.007812 17.46875 -32.960938 17.5625 -32.960938 C 18.363281 -32.960938 19.210938 -33.007812 20.058594 -33.007812 L 22.789062 -33.007812 C 22.882812 -33.007812 22.976562 -32.914062 23.070312 -32.867188 C 23.121094 -32.820312 23.167969 -32.820312 23.167969 -32.773438 C 23.214844 -32.679688 23.214844 -32.582031 23.214844 -32.488281 C 23.214844 -32.394531 23.308594 -32.300781 23.308594 -32.207031 C 23.308594 -30.652344 23.261719 -30.652344 23.261719 -29.097656 L 23.261719 -25.992188 C 23.261719 -24.4375 23.214844 -24.4375 23.214844 -22.882812 C 23.214844 -21.28125 23.308594 -21.28125 23.308594 -19.730469 C 23.308594 -16.902344 23.261719 -14.078125 23.261719 -11.253906 C 23.261719 -10.078125 23.214844 -8.898438 23.214844 -7.722656 C 23.214844 -6.546875 23.308594 -5.320312 23.308594 -4.144531 C 23.308594 -2.964844 23.261719 -1.789062 23.261719 -0.613281 C 23.261719 -0.519531 23.308594 -0.375 23.308594 -0.328125 C 23.261719 -0.140625 23.121094 0 22.929688 0.046875 L 22.601562 0 C 21.941406 0 21.28125 -0.046875 20.625 -0.046875 C 19.683594 -0.046875 18.691406 0 17.703125 0 C 17.609375 0 17.515625 -0.046875 17.421875 -0.046875 C 17.28125 -0.046875 17.140625 -0.09375 17.09375 -0.234375 C 17.09375 -0.28125 17.1875 -0.375 17.1875 -0.421875 C 17.140625 -0.800781 17.046875 -1.128906 17.046875 -1.507812 C 17.046875 -1.601562 17.140625 -1.695312 17.140625 -1.789062 L 17.140625 -2.355469 C 17.140625 -2.589844 17.046875 -2.824219 17.046875 -3.011719 C 17.046875 -3.109375 17.046875 -3.15625 17.046875 -3.203125 L 17.09375 -3.25 C 17.09375 -3.25 17.046875 -3.296875 17.046875 -3.296875 L 17 -3.296875 C 17.046875 -3.390625 17.09375 -3.53125 17.09375 -3.625 C 17 -6.261719 16.949219 -8.898438 16.667969 -11.535156 C 16.667969 -11.628906 16.714844 -11.773438 16.667969 -11.867188 C 16.574219 -12.761719 16.339844 -13.609375 16.199219 -14.503906 L 16.199219 -14.550781 C 16.101562 -15.160156 16.007812 -15.820312 15.867188 -16.433594 C 15.773438 -16.761719 15.632812 -17.046875 15.539062 -17.328125 C 15.539062 -17.46875 15.445312 -17.421875 15.398438 -17.515625 C 15.351562 -17.75 15.398438 -17.941406 15.351562 -18.082031 C 15.066406 -18.882812 14.691406 -19.636719 14.3125 -20.386719 C 14.3125 -20.484375 14.3125 -20.484375 14.265625 -20.53125 C 14.171875 -20.71875 14.078125 -20.90625 13.984375 -21.09375 L 13.5625 -21.800781 C 13.5625 -21.847656 13.515625 -21.894531 13.464844 -21.941406 C 13.464844 -21.941406 13.417969 -21.941406 13.371094 -21.988281 L 13.277344 -22.082031 C 12.996094 -22.414062 12.761719 -22.882812 12.429688 -23.214844 C 12.382812 -23.308594 12.242188 -23.308594 12.148438 -23.402344 L 12.007812 -23.542969 C 11.820312 -23.730469 11.628906 -23.96875 11.347656 -24.203125 C 11.113281 -24.4375 10.828125 -24.625 10.5 -24.863281 C 10.359375 -24.910156 10.21875 -25.003906 10.078125 -25.097656 C 10.03125 -25.097656 10.03125 -25.144531 9.980469 -25.144531 C 9.933594 -25.191406 9.792969 -25.191406 9.699219 -25.191406 L 9.699219 -25.144531 C 9.558594 -25.144531 9.371094 -25.144531 9.324219 -25.003906 C 9.277344 -24.957031 9.371094 -24.8125 9.324219 -24.671875 C 9.324219 -24.34375 9.277344 -24.015625 9.277344 -23.636719 L 9.277344 -23.449219 C 9.277344 -22.367188 9.324219 -21.28125 9.324219 -20.199219 C 9.324219 -19.164062 9.277344 -18.082031 9.277344 -17 C 9.277344 -15.914062 9.324219 -14.832031 9.324219 -13.75 C 9.324219 -12.714844 9.324219 -11.628906 9.324219 -10.546875 L 9.324219 -7.296875 C 9.324219 -6.261719 9.230469 -5.179688 9.230469 -4.097656 L 9.230469 -0.472656 C 9.230469 -0.375 9.324219 -0.28125 9.277344 -0.234375 C 9.230469 -0.09375 9.132812 0 8.992188 0 C 8.851562 0.046875 8.664062 0.046875 8.523438 0.046875 Z M 8.523438 -0.046875 "/></g></g></g></svg>